<svg width="1280" height="720" xmlns="http://www.w3.org/2000/svg" xmlns:xlink="http://www.w3.org/1999/xlink" overflow="hidden"><defs><clipPath id="clip0"><rect x="0" y="0" width="1280" height="720"/></clipPath><clipPath id="clip1"><rect x="222" y="159" width="326" height="325"/></clipPath><clipPath id="clip2"><rect x="222" y="159" width="326" height="325"/></clipPath><clipPath id="clip3"><rect x="222" y="159" width="326" height="325"/></clipPath></defs><g clip-path="url(#clip0)"><rect x="0" y="0" width="1280" height="720" fill="#FFFFFF"/><path d="M83 332C83 176.808 218.21 51 385 51 551.79 51 687 176.808 687 332 687 487.192 551.79 613 385 613 218.21 613 83 487.192 83 332Z" stroke="#000000" stroke-width="4" stroke-miterlimit="8" fill="#FFFFFF" fill-rule="evenodd"/><path d="M848.578 120.135 852.928 120.135 852.928 134.403 848.578 134.403ZM1073.02 109.908C1068.34 110.756 1063.47 112.271 1058.43 114.453 1050.66 117.918 1046.49 121.77 1045.9 126.007 1045.4 129.053 1046.71 130.575 1049.83 130.575 1053.21 130.575 1057.47 129.252 1062.61 126.607 1068 123.692 1071.47 121.148 1073.02 118.973ZM963.024 109.908C958.34 110.756 953.475 112.271 948.429 114.453 940.66 117.918 936.485 121.77 935.904 126.007 935.401 129.053 936.708 130.575 939.827 130.575 943.208 130.575 947.47 129.252 952.612 126.607 958.002 123.692 961.473 121.148 963.024 118.973ZM1031.2 99.081C1024.92 99.081 1019.4 101.222 1014.66 105.503 1009.38 110.206 1006.74 116.317 1006.74 123.834 1006.74 124.947 1006.75 125.822 1006.78 126.46 1006.91 128.159 1007.8 129.009 1009.44 129.009 1013.17 129.009 1017.57 126.893 1022.62 122.661 1028.58 116.015 1032.12 109.328 1033.24 102.6L1033.24 99.1626C1032.78 99.1082 1032.1 99.081 1031.2 99.081ZM990.839 94.383 995.101 94.383 995.101 134.403 990.839 134.403ZM1082.88 93.6 1087.14 93.6 1087.14 103.303C1090.98 96.8344 1096.14 93.6 1102.61 93.6 1103.79 93.6 1105.33 93.7658 1107.24 94.0975L1107.24 98.3864C1105.53 98.0955 1104.25 97.95 1103.38 97.95 1096.99 97.95 1091.58 101.966 1087.14 109.998L1087.14 134.403 1082.88 134.403 1082.88 110.932 1081.66 110.932C1082.03 109.572 1082.44 108.532 1082.88 107.814ZM1067.64 92.469C1070.17 92.469 1072.42 93.4613 1074.4 95.446 1076.38 97.4307 1077.37 99.6864 1077.37 102.213L1077.37 106.394C1077.37 106.3 1077.48 106.395 1077.69 106.68 1077.9 106.964 1078.01 107.335 1078.01 107.792L1077.37 108.987 1077.37 117.037 1078.26 117.256C1077.79 119.083 1077.5 120.095 1077.37 120.293L1077.37 134.403 1073.02 134.403 1073.02 123.735C1070.84 126.239 1067.61 128.395 1063.33 130.205 1057.65 133.004 1053.01 134.403 1049.4 134.403 1043.76 134.403 1041.16 131.445 1041.62 125.528 1042.1 120.17 1046.82 115.427 1055.78 111.298 1062.15 108.368 1067.9 106.559 1073.02 105.871L1073.02 102.27C1073.02 100.86 1072.48 99.5989 1071.4 98.487 1070.31 97.375 1069.09 96.819 1067.75 96.819 1066.36 96.819 1063.29 97.5952 1058.53 99.1476 1053.71 100.689 1051.13 101.971 1050.81 102.995L1046.57 102.995C1046.64 100.664 1049.06 98.4879 1053.82 96.4669 1057.73 94.7976 1061.76 93.5302 1065.91 92.6647 1066.5 92.5342 1067.07 92.469 1067.64 92.469ZM957.639 92.469C960.165 92.469 962.42 93.4613 964.401 95.446 966.383 97.4307 967.374 99.6864 967.374 102.213L967.374 106.394C967.374 106.3 967.48 106.395 967.691 106.68 967.902 106.964 968.008 107.335 968.008 107.792L967.374 108.987 967.374 117.037 968.263 117.256C967.795 119.083 967.499 120.095 967.374 120.293L967.374 134.403 963.024 134.403 963.024 123.735C960.845 126.239 957.613 128.395 953.328 130.205 947.651 133.004 943.009 134.403 939.4 134.403 933.756 134.403 931.162 131.445 931.617 125.528 932.099 120.17 936.818 115.427 945.775 111.298 952.148 108.368 957.898 106.559 963.024 105.871L963.024 102.27C963.024 100.86 962.482 99.5989 961.396 98.487 960.31 97.375 959.095 96.819 957.75 96.819 956.359 96.819 953.287 97.5952 948.535 99.1476 943.706 100.689 941.131 101.971 940.808 102.995L936.567 102.995C936.637 100.664 939.056 98.4879 943.825 96.4669 947.731 94.7976 951.761 93.5302 955.915 92.6647 956.5 92.5342 957.075 92.469 957.639 92.469ZM990.839 83.943 995.101 83.943 995.101 92.034 990.839 92.034ZM822.919 64.5542C826.732 64.4328 829.739 65.2421 831.941 66.9821 834.142 68.7221 835.211 71.0502 835.149 73.9665 835.09 80.4734 830.864 89.7779 822.471 101.88 817.24 109.358 811.695 116.296 805.837 122.694L800.395 128.369 834.706 122.935 834.688 127.175 792.5 133.793 791.304 130.839C792.812 129.555 795.029 127.768 797.954 125.477 804.851 118.269 811.786 109.673 818.758 99.6886 826.678 88.2744 830.638 79.8526 830.638 74.4233 830.638 70.3923 828.093 68.4905 823.003 68.718 810.583 69.163 801.24 74.8705 794.975 85.8407L790.705 85.8407C798.023 72.0584 808.761 64.963 822.919 64.5542ZM973.401 64.194 977.664 64.194 977.664 133.968 973.401 133.968ZM1033.24 63.846 1037.51 63.846 1037.51 133.968 1033.24 133.968 1033.24 111.786C1031.73 117.537 1028.29 122.646 1022.93 127.114 1017.81 131.277 1013.18 133.359 1009.04 133.359 1005.22 133.359 1003.05 131.46 1002.54 127.66 1002.3 126.129 1002.18 124.607 1002.18 123.096 1002.18 114.62 1005.42 107.622 1011.89 102.1 1017.64 97.1874 1024.13 94.731 1031.37 94.731 1032.29 94.731 1032.91 94.731 1033.24 94.731ZM925.875 63.3199 930.052 63.4124 906.845 133.968 903.764 133.968 884.445 64.2008 888.599 64.0907 905.431 126.841Z" stroke="#000000" stroke-width="3" stroke-linejoin="round" stroke-miterlimit="10" fill-rule="evenodd"/><text fill="#000000" fill-opacity="0" font-family="Arial,Arial_MSFontService,sans-serif" font-size="71.0831" x="790.705" y="125.518">2. Validar</text><path d="M1091.21 213.434C1085.7 214.308 1080.19 215.938 1074.68 218.325 1066.74 221.877 1062.45 225.981 1061.81 230.638 1061.29 234.365 1062.91 236.228 1066.68 236.228 1070.28 236.228 1074.92 234.743 1080.6 231.773 1085.94 228.92 1089.47 226.271 1091.21 223.826ZM987.214 213.434C981.703 214.308 976.193 215.938 970.683 218.325 962.737 221.877 958.445 225.981 957.807 230.638 957.285 234.365 958.909 236.228 962.679 236.228 966.276 236.228 970.915 234.743 976.599 231.773 981.935 228.92 985.474 226.271 987.214 223.826ZM878.214 213.434C872.703 214.308 867.193 215.938 861.683 218.325 853.737 221.877 849.445 225.981 848.807 230.638 848.285 234.365 849.909 236.228 853.68 236.228 857.276 236.228 861.915 234.743 867.599 231.773 872.935 228.92 876.474 226.271 878.214 223.826ZM944.464 202.472C937.832 202.472 932.015 204.722 927.012 209.221 921.427 214.182 918.635 220.614 918.635 228.518 918.635 229.441 918.664 230.364 918.721 231.287 918.896 233.479 920.089 234.575 922.299 234.575 926.372 234.575 931.143 231.863 936.611 226.441 942.661 220.499 946.268 214.038 947.432 207.059L947.432 202.645C946.443 202.53 945.454 202.472 944.464 202.472ZM905.592 199.253 908.115 199.253 908.115 238.403 905.592 238.403ZM996.459 198.47 998.982 198.47 998.982 208.475C1003.82 201.805 1009.38 198.47 1015.67 198.47 1016.83 198.47 1018.12 198.593 1019.51 198.838L1019.51 201.689C1018.47 201.399 1017.45 201.254 1016.46 201.254 1009.58 201.254 1003.76 205.566 998.982 214.191L998.982 238.403 996.459 238.403 996.459 214.478 995.241 214.478C995.531 213.956 995.938 213.26 996.459 212.39ZM1084.86 197.339C1087.18 197.339 1089.27 198.267 1091.13 200.123 1092.98 201.979 1093.91 204.096 1093.91 206.474L1093.91 210.737C1093.91 210.795 1094.01 210.969 1094.21 211.259 1094.42 211.549 1094.52 211.781 1094.52 211.955L1093.91 213.173 1093.91 222.221 1094.78 222.395C1094.37 223.613 1094.08 224.367 1093.91 224.657L1093.91 238.403 1091.21 238.403 1091.21 227.528C1088.08 230.159 1084.2 232.556 1079.56 234.719 1074.22 237.175 1069.78 238.403 1066.24 238.403 1061.08 238.403 1058.73 235.706 1059.2 230.312 1059.66 225.15 1064.3 220.539 1073.12 216.479 1079.56 213.521 1085.59 211.665 1091.21 210.911L1091.21 206.561C1091.21 204.879 1090.58 203.385 1089.3 202.081 1088.02 200.775 1086.57 200.123 1084.95 200.123 1083.44 200.123 1080.22 200.924 1075.29 202.525 1070.07 204.184 1067.32 205.472 1067.03 206.387L1064.24 206.387C1064.3 204.937 1066.59 203.255 1071.12 201.341 1075.06 199.659 1079.12 198.383 1083.3 197.513 1083.82 197.397 1084.34 197.339 1084.86 197.339ZM980.862 197.339C983.182 197.339 985.271 198.267 987.126 200.123 988.982 201.979 989.91 204.096 989.91 206.474L989.91 210.737C989.91 210.795 990.012 210.969 990.215 211.259 990.418 211.549 990.519 211.781 990.519 211.955L989.91 213.173 989.91 222.221 990.78 222.395C990.374 223.613 990.084 224.367 989.91 224.657L989.91 238.403 987.214 238.403 987.214 227.528C984.081 230.159 980.195 232.556 975.555 234.719 970.219 237.175 965.782 238.403 962.245 238.403 957.083 238.403 954.734 235.706 955.198 230.312 955.661 225.15 960.302 220.539 969.117 216.479 975.555 213.521 981.588 211.665 987.214 210.911L987.214 206.561C987.214 204.879 986.576 203.385 985.299 202.081 984.023 200.775 982.573 200.123 980.949 200.123 979.441 200.123 976.222 200.924 971.292 202.525 966.073 204.184 963.318 205.472 963.027 206.387L960.243 206.387C960.302 204.937 962.592 203.255 967.116 201.341 971.06 199.659 975.12 198.383 979.297 197.513 979.818 197.397 980.34 197.339 980.862 197.339ZM871.862 197.339C874.182 197.339 876.271 198.267 878.126 200.123 879.982 201.979 880.911 204.096 880.911 206.474L880.911 210.737C880.911 210.795 881.012 210.969 881.215 211.259 881.418 211.549 881.519 211.781 881.519 211.955L880.911 213.173 880.911 222.221 881.781 222.395C881.375 223.613 881.084 224.367 880.911 224.657L880.911 238.403 878.214 238.403 878.214 227.528C875.081 230.159 871.195 232.556 866.555 234.719 861.219 237.175 856.782 238.403 853.245 238.403 848.083 238.403 845.733 235.706 846.198 230.312 846.661 225.15 851.302 220.539 860.117 216.479 866.555 213.521 872.587 211.665 878.214 210.911L878.214 206.561C878.214 204.879 877.576 203.385 876.299 202.081 875.023 200.775 873.573 200.123 871.949 200.123 870.441 200.123 867.222 200.924 862.292 202.525 857.073 204.184 854.318 205.472 854.027 206.387L851.243 206.387C851.302 204.937 853.592 203.255 858.116 201.341 862.06 199.659 866.12 198.383 870.297 197.513 870.818 197.397 871.341 197.339 871.862 197.339ZM905.592 188.639 908.115 188.639 908.115 195.164 905.592 195.164ZM1048.07 168.542 1050.59 168.542 1050.59 237.968 1048.07 237.968ZM887.068 168.542 889.591 168.542 889.591 237.968 887.068 237.968ZM947.432 168.194 949.954 168.194 949.954 237.968 947.432 237.968 947.432 215.348C944.814 221.438 940.83 226.716 935.48 231.182 930.42 235.3 925.884 237.359 921.87 237.359 918.497 237.359 916.578 235.648 916.113 232.226 915.88 230.718 915.763 229.239 915.763 227.789 915.763 219.379 918.962 212.448 925.359 206.996 931.06 202.124 937.486 199.688 944.639 199.688 945.57 199.688 946.501 199.688 947.432 199.688ZM839.996 167.743 842.741 167.759 819.339 237.968 817.511 237.968 798.022 168.542 800.726 168.516 818.463 232.342Z" stroke="#000000" stroke-linejoin="round" stroke-miterlimit="10" fill-rule="evenodd"/><text fill="#000000" fill-opacity="0" font-family="Arial,Arial_MSFontService,sans-serif" font-size="70.6603" x="798.022" y="229.57">Validar la</text><path d="M935.38 317.434C929.87 318.308 924.36 319.938 918.85 322.325 910.904 325.877 906.612 329.981 905.974 334.638 905.452 338.365 907.076 340.228 910.846 340.228 914.442 340.228 919.082 338.743 924.766 335.773 930.102 332.92 933.64 330.271 935.38 327.826ZM1108.63 306.472C1102 306.472 1096.18 308.722 1091.18 313.221 1085.59 318.182 1082.8 324.614 1082.8 332.518 1082.8 333.441 1082.83 334.364 1082.89 335.287 1083.06 337.479 1084.26 338.575 1086.47 338.575 1090.54 338.575 1095.31 335.863 1100.78 330.44 1106.83 324.499 1110.43 318.038 1111.6 311.059L1111.6 306.645C1110.61 306.53 1109.62 306.472 1108.63 306.472ZM1015.65 305.145C1015.22 305.087 1014.77 305.094 1014.29 305.167 1004.95 306.613 998.918 312.457 996.192 322.697 995.554 325.127 995.235 327.499 995.235 329.814 995.235 332.764 995.757 335.135 996.801 336.929 997.903 338.896 999.44 339.88 1001.41 339.88 1001.82 339.88 1002.22 339.851 1002.63 339.793 1007.39 338.926 1011.27 336.062 1014.29 331.202 1015.68 328.945 1017.42 324.895 1019.51 319.052 1020.09 317.374 1020.38 315.581 1020.38 313.671 1020.38 311.126 1019.89 309.043 1018.9 307.424 1018.03 306.078 1016.95 305.318 1015.65 305.145ZM822.653 305.145C822.222 305.087 821.767 305.094 821.288 305.167 811.95 306.613 805.918 312.457 803.192 322.697 802.554 325.127 802.235 327.499 802.235 329.814 802.235 332.764 802.757 335.135 803.801 336.929 804.903 338.896 806.44 339.88 808.412 339.88 808.818 339.88 809.224 339.851 809.63 339.793 814.386 338.926 818.272 336.062 821.288 331.202 822.68 328.945 824.42 324.895 826.508 319.052 827.088 317.374 827.378 315.581 827.378 313.671 827.378 311.126 826.885 309.043 825.899 307.424 825.029 306.078 823.947 305.318 822.653 305.145ZM966.985 303.427C969.073 303.427 970.9 303.949 972.466 304.993L970.465 306.994C969.189 306.066 967.739 305.602 966.115 305.602 962.055 305.602 957.937 307.936 953.761 312.605 949.585 317.274 947.149 322.306 946.453 327.7 946.337 328.512 946.279 329.324 946.279 330.136 946.279 336.11 949.179 339.097 954.979 339.097 960.489 339.097 965.622 336.777 970.378 332.137L972.205 334.051C967.043 339.155 961.301 341.707 954.979 341.707 951.615 341.707 948.947 340.808 946.975 339.01 944.829 336.98 943.756 334.051 943.756 330.223 943.756 329.295 943.814 328.338 943.93 327.352 944.684 321.378 947.512 315.897 952.413 310.909 957.314 305.921 962.171 303.427 966.985 303.427ZM983.759 303.253 986.282 303.253 986.282 342.403 983.759 342.403ZM732.759 303.253 735.282 303.253 735.282 342.403 732.759 342.403ZM1015.85 302.519C1017.68 302.747 1019.25 303.775 1020.55 305.602 1022.12 307.864 1022.9 310.706 1022.9 314.128 1022.9 316.158 1022.58 318.072 1021.94 319.87 1019.74 326.076 1017.8 330.513 1016.12 333.181 1012.69 338.459 1008.34 341.562 1003.07 342.49 1002.54 342.606 1002.05 342.664 1001.59 342.664 998.802 342.664 996.598 341.33 994.974 338.662 993.466 336.168 992.712 332.978 992.712 329.092 992.712 326.772 993.002 324.423 993.582 322.045 996.482 310.677 1003.27 304.181 1013.94 302.557 1014.61 302.455 1015.25 302.443 1015.85 302.519ZM822.854 302.519C824.681 302.747 826.247 303.775 827.552 305.602 829.118 307.864 829.901 310.706 829.901 314.128 829.901 316.158 829.582 318.072 828.944 319.87 826.74 326.076 824.797 330.513 823.115 333.181 819.693 338.459 815.343 341.562 810.065 342.49 809.543 342.606 809.05 342.664 808.586 342.664 805.802 342.664 803.598 341.33 801.974 338.662 800.466 336.168 799.712 332.978 799.712 329.092 799.712 326.772 800.002 324.423 800.582 322.045 803.482 310.677 810.268 304.181 820.94 302.557 821.607 302.455 822.245 302.443 822.854 302.519ZM833.626 302.47 836.149 302.47 836.149 312.475C840.984 305.805 846.547 302.47 852.837 302.47 854.001 302.47 855.283 302.593 856.681 302.838L856.681 305.689C855.633 305.399 854.613 305.254 853.623 305.254 846.75 305.254 840.925 309.566 836.149 318.191L836.149 342.403 833.626 342.403 833.626 318.478 832.408 318.478C832.698 317.956 833.104 317.26 833.626 316.39ZM1026.02 302.035 1028.54 302.035 1028.54 318.304C1034.31 309.72 1039.31 304.587 1043.57 302.905 1044.21 302.673 1044.79 302.557 1045.31 302.557 1047.53 302.557 1048.95 304.819 1049.59 309.343 1049.88 311.315 1050.03 315.259 1050.03 321.175L1050.03 342.403 1047.51 342.403 1047.51 321.175C1047.51 316.361 1047.42 313.171 1047.24 311.605 1046.83 308.067 1045.9 306.298 1044.43 306.298 1044.14 306.298 1043.82 306.385 1043.47 306.559 1038.84 308.531 1033.87 313.954 1028.54 322.828L1028.54 342.403 1026.02 342.403 1026.02 325.003 1024.45 325.003C1024.63 324.655 1025.15 323.785 1026.02 322.393ZM743.017 302.035 745.54 302.035 745.54 318.304C751.306 309.72 756.314 304.587 760.565 302.905 761.206 302.673 761.788 302.557 762.312 302.557 764.525 302.557 765.952 304.819 766.593 309.343 766.884 311.315 767.029 315.259 767.029 321.175L767.029 342.403 764.506 342.403 764.506 321.175C764.506 316.361 764.418 313.171 764.242 311.605 763.833 308.067 762.896 306.298 761.433 306.298 761.14 306.298 760.818 306.385 760.467 306.559 755.843 308.531 750.867 313.954 745.54 322.828L745.54 342.403 743.017 342.403 743.017 325.003 741.451 325.003C741.625 324.655 742.147 323.785 743.017 322.393ZM1146.25 301.774C1150.48 301.774 1152.6 303.304 1152.6 306.363 1152.6 307.345 1152.4 308.442 1151.99 309.654 1150.89 312.772 1148.05 315.427 1143.46 317.62 1139.64 319.41 1136.33 320.305 1133.55 320.305 1132.73 320.305 1132.21 320.189 1131.98 319.957L1133.99 316.738C1133.99 317.26 1134.48 317.521 1135.48 317.521 1137.57 317.521 1140.14 316.714 1143.17 315.1 1146.67 313.256 1148.82 311.152 1149.64 308.79 1149.93 307.925 1150.08 307.176 1150.08 306.541 1150.08 304.755 1148.94 303.862 1146.66 303.862 1144.38 303.862 1141.35 304.641 1137.55 306.2 1135.04 307.181 1132.36 309.46 1129.5 313.039 1125.94 317.483 1123.78 322.216 1123.02 327.238 1122.84 328.391 1122.76 329.459 1122.76 330.44 1122.76 336.327 1125.23 339.271 1130.18 339.271 1135.76 339.271 1142.02 335.733 1148.94 328.657L1150.86 330.484C1143.38 338.198 1136.39 342.055 1129.89 342.055 1126.93 342.055 1124.58 341.086 1122.84 339.147 1121.1 337.208 1120.23 334.386 1120.23 330.682 1120.23 329.525 1120.32 328.281 1120.5 326.95 1121.31 321.335 1123.71 316.127 1127.72 311.324 1130.91 307.446 1133.89 304.928 1136.68 303.771 1139.98 302.44 1143.17 301.774 1146.25 301.774ZM893.469 301.426C895.847 301.426 897.297 303.659 897.819 308.125 897.993 309.459 898.08 313.374 898.08 319.87L898.08 342.838 895.557 342.838 895.557 319.87C895.557 313.896 895.528 310.503 895.47 309.691 895.178 305.921 894.332 304.181 892.932 304.471 889.141 305.167 884.882 309.633 880.158 317.869L880.158 342.403 877.635 342.403 877.635 320.131 876.069 320.131C876.301 319.783 876.823 318.942 877.635 317.608 877.577 313.954 877.431 311.431 877.197 310.039 876.79 307.661 875.973 306.646 874.748 306.994 872.648 307.574 870.256 309.546 867.573 312.91 865.24 315.752 863.461 318.536 862.236 321.262L862.236 342.403 859.713 342.403 859.713 324.829 858.147 324.829C858.321 324.365 858.843 323.234 859.713 321.436L859.713 302.035 862.236 302.035 862.236 316.564C866.354 309.488 870.298 305.196 874.068 303.688 874.648 303.456 875.199 303.34 875.721 303.34 878.389 303.34 879.868 306.791 880.158 313.693 883.754 307.023 887.698 303.021 891.99 301.687 892.512 301.513 893.005 301.426 893.469 301.426ZM929.029 301.339C931.349 301.339 933.437 302.267 935.293 304.123 937.149 305.979 938.077 308.096 938.077 310.474L938.077 314.737C938.077 314.795 938.179 314.969 938.382 315.259 938.585 315.549 938.686 315.781 938.686 315.955L938.077 317.173 938.077 326.221 938.947 326.395C938.541 327.613 938.251 328.367 938.077 328.657L938.077 342.403 935.38 342.403 935.38 331.528C932.248 334.159 928.362 336.556 923.722 338.719 918.386 341.175 913.949 342.403 910.411 342.403 905.249 342.403 902.9 339.706 903.364 334.312 903.828 329.15 908.468 324.539 917.284 320.479 923.722 317.521 929.754 315.665 935.38 314.911L935.38 310.561C935.38 308.879 934.742 307.385 933.466 306.08 932.19 304.775 930.74 304.123 929.116 304.123 927.608 304.123 924.389 304.924 919.459 306.525 914.239 308.184 911.484 309.472 911.194 310.387L908.41 310.387C908.468 308.937 910.759 307.255 915.283 305.341 919.227 303.659 923.287 302.383 927.463 301.513 927.985 301.397 928.507 301.339 929.029 301.339ZM983.759 292.639 986.282 292.639 986.282 299.164 983.759 299.164ZM732.759 292.639 735.282 292.639 735.282 299.164 732.759 299.164ZM1016.64 280.111 1018.48 281.96 1002.65 296.315 1000.8 294.485ZM791.722 273.586C794.564 273.586 797 274.514 799.03 276.37 801.408 278.516 802.974 281.619 803.728 285.679L801.031 285.679C800.451 282.489 799.262 280.053 797.464 278.371 795.84 276.863 793.926 276.109 791.722 276.109 789.112 276.109 786.937 277.066 785.197 278.98 783.109 281.242 782.065 283.591 782.065 286.027 782.065 286.375 782.065 286.926 782.065 287.68 782.065 288.492 782.065 289.13 782.065 289.594L782.065 300.643 791.461 300.121 791.461 302.731 782.065 303.427 782.065 341.968 779.542 341.968 779.542 303.427 772.408 303.775 772.408 301.165 779.542 300.817 779.542 289.594C779.542 285.882 779.571 283.794 779.629 283.33 780.035 281.358 781.253 279.299 783.283 277.153 785.545 274.775 788.358 273.586 791.722 273.586ZM1160.24 272.542 1162.76 272.542 1162.76 341.968 1160.24 341.968ZM1111.6 272.194 1114.12 272.194 1114.12 341.968 1111.6 341.968 1111.6 319.348C1108.98 325.438 1105 330.716 1099.65 335.182 1094.59 339.3 1090.05 341.359 1086.04 341.359 1082.66 341.359 1080.74 339.648 1080.28 336.226 1080.05 334.718 1079.93 333.239 1079.93 331.789 1079.93 323.379 1083.13 316.448 1089.53 310.996 1095.23 306.124 1101.65 303.688 1108.81 303.688 1109.74 303.688 1110.67 303.688 1111.6 303.688Z" stroke="#000000" stroke-linejoin="round" stroke-miterlimit="10" fill-rule="evenodd"/><text fill="#000000" fill-opacity="0" font-family="Arial,Arial_MSFontService,sans-serif" font-size="70.644" x="732.759" y="334.007">información del</text><path d="M1124.21 421.434C1118.7 422.308 1113.19 423.938 1107.68 426.325 1099.74 429.877 1095.45 433.981 1094.81 438.638 1094.29 442.365 1095.91 444.228 1099.68 444.228 1103.28 444.228 1107.92 442.743 1113.6 439.773 1118.94 436.92 1122.47 434.271 1124.21 431.826ZM909.214 421.434C903.703 422.308 898.193 423.938 892.683 426.325 884.737 429.877 880.445 433.981 879.807 438.638 879.285 442.365 880.909 444.228 884.68 444.228 888.276 444.228 892.915 442.743 898.599 439.773 903.935 436.92 907.474 434.271 909.214 431.826ZM989.486 409.145C989.055 409.087 988.6 409.094 988.121 409.167 978.783 410.613 972.751 416.457 970.025 426.697 969.387 429.127 969.068 431.499 969.068 433.814 969.068 436.764 969.59 439.135 970.634 440.929 971.736 442.896 973.273 443.88 975.245 443.88 975.651 443.88 976.057 443.851 976.464 443.793 981.219 442.926 985.105 440.062 988.121 435.202 989.513 432.945 991.253 428.895 993.341 423.052 993.922 421.374 994.211 419.581 994.211 417.671 994.211 415.126 993.719 413.043 992.732 411.424 991.862 410.078 990.78 409.318 989.486 409.145ZM834.486 409.145C834.055 409.087 833.6 409.094 833.121 409.167 823.784 410.613 817.751 416.457 815.026 426.697 814.388 429.127 814.068 431.499 814.068 433.814 814.068 436.764 814.591 439.135 815.635 440.929 816.737 442.896 818.273 443.88 820.245 443.88 820.651 443.88 821.057 443.851 821.464 443.793 826.219 442.926 830.105 440.062 833.121 435.202 834.513 432.945 836.253 428.895 838.341 423.052 838.922 421.374 839.211 419.581 839.211 417.671 839.211 415.126 838.719 413.043 837.732 411.424 836.862 410.078 835.78 409.318 834.486 409.145ZM956.818 407.427C958.906 407.427 960.734 407.949 962.299 408.993L960.298 410.994C959.022 410.066 957.573 409.602 955.948 409.602 951.888 409.602 947.771 411.936 943.594 416.605 939.418 421.274 936.982 426.306 936.286 431.7 936.17 432.512 936.112 433.324 936.112 434.136 936.112 440.11 939.012 443.097 944.812 443.097 950.323 443.097 955.455 440.777 960.211 436.137L962.038 438.051C956.876 443.155 951.134 445.707 944.812 445.707 941.448 445.707 938.781 444.808 936.808 443.01 934.662 440.98 933.589 438.051 933.589 434.223 933.589 433.295 933.647 432.338 933.763 431.352 934.517 425.378 937.345 419.897 942.246 414.909 947.147 409.921 952.004 407.427 956.818 407.427ZM923.592 407.253 926.115 407.253 926.115 446.403 923.592 446.403ZM865.959 406.883C867.271 406.811 868.616 406.818 869.993 406.905L869.993 409.515C865.005 409.167 860.626 409.877 856.857 411.646 853.086 413.415 850.36 416.127 848.678 419.781 848.446 420.361 848.331 420.854 848.331 421.26 848.331 422.304 849.287 422.826 851.201 422.826 852.303 422.826 854.696 422.536 858.379 421.956 862.062 421.376 864.831 421.086 866.688 421.086 871.675 421.086 874.169 422.884 874.169 426.48 874.169 427.408 874.024 428.452 873.734 429.612 871.763 437.094 862.743 442.836 846.677 446.838L846.677 444.141C853.324 442.459 858.006 441.009 860.723 439.791 866.503 437.123 869.999 433.73 871.213 429.612 871.502 428.684 871.646 427.872 871.646 427.176 871.646 424.682 869.854 423.435 866.27 423.435 864.71 423.435 862.036 423.754 858.25 424.392 854.464 425.03 851.819 425.349 850.315 425.349 847.078 425.349 845.459 424.247 845.459 422.043 845.459 421.405 845.604 420.651 845.894 419.781 847.229 415.431 850.273 412.067 855.029 409.689 858.379 408.036 862.022 407.101 865.959 406.883ZM989.688 406.519C991.514 406.747 993.08 407.775 994.385 409.602 995.951 411.864 996.734 414.706 996.734 418.128 996.734 420.158 996.415 422.072 995.777 423.87 993.573 430.076 991.63 434.513 989.948 437.181 986.526 442.459 982.177 445.562 976.898 446.49 976.376 446.606 975.883 446.664 975.419 446.664 972.635 446.664 970.432 445.33 968.807 442.662 967.299 440.168 966.545 436.978 966.545 433.092 966.545 430.772 966.836 428.423 967.415 426.045 970.315 414.677 977.102 408.181 987.773 406.557 988.44 406.455 989.078 406.443 989.688 406.519ZM834.688 406.519C836.514 406.747 838.081 407.775 839.385 409.602 840.951 411.864 841.734 414.706 841.734 418.128 841.734 420.158 841.415 422.072 840.777 423.87 838.573 430.076 836.63 434.513 834.948 437.181 831.526 442.459 827.177 445.562 821.898 446.49 821.376 446.606 820.883 446.664 820.419 446.664 817.635 446.664 815.432 445.33 813.807 442.662 812.299 440.168 811.545 436.978 811.545 433.092 811.545 430.772 811.836 428.423 812.415 426.045 815.315 414.677 822.102 408.181 832.773 406.557 833.44 406.455 834.078 406.443 834.688 406.519ZM1025.07 406.035 1027.59 406.035 1027.59 436.155C1027.59 439.163 1027.59 440.755 1027.59 440.929 1027.88 442.722 1028.73 443.619 1030.14 443.619 1030.78 443.619 1031.57 443.416 1032.51 443.011 1034.91 442.028 1037.58 440.032 1040.5 437.022 1042.85 434.591 1044.63 432.335 1045.86 430.252L1045.86 406.035 1048.38 406.035 1048.38 426.654 1049.69 427.959C1048.82 429.815 1048.38 430.859 1048.38 431.091L1048.38 463.455 1045.86 463.455 1045.86 434.919C1041.61 440.429 1037.5 443.967 1033.54 445.533 1032.15 446.113 1030.92 446.403 1029.87 446.403 1027.72 446.403 1026.29 445.185 1025.59 442.749 1025.24 441.473 1025.07 439.298 1025.07 436.224ZM801.302 405.426C803.68 405.426 805.13 407.659 805.652 412.125 805.826 413.459 805.914 417.374 805.914 423.87L805.914 446.838 803.391 446.838 803.391 423.87C803.391 417.896 803.362 414.503 803.303 413.691 803.012 409.921 802.166 408.181 800.766 408.471 796.974 409.167 792.716 413.633 787.992 421.869L787.992 446.403 785.469 446.403 785.469 424.131 783.902 424.131C784.134 423.783 784.656 422.942 785.469 421.608 785.41 417.954 785.265 415.431 785.031 414.039 784.623 411.661 783.806 410.646 782.581 410.994 780.481 411.574 778.09 413.546 775.406 416.91 773.074 419.752 771.295 422.536 770.069 425.262L770.069 446.403 767.547 446.403 767.547 428.829 765.98 428.829C766.154 428.365 766.677 427.234 767.547 425.436L767.547 406.035 770.069 406.035 770.069 420.564C774.188 413.488 778.131 409.196 781.901 407.688 782.482 407.456 783.032 407.34 783.555 407.34 786.222 407.34 787.701 410.791 787.992 417.693 791.587 411.023 795.531 407.021 799.823 405.687 800.345 405.513 800.839 405.426 801.302 405.426ZM1117.86 405.339C1120.18 405.339 1122.27 406.267 1124.13 408.123 1125.98 409.979 1126.91 412.096 1126.91 414.474L1126.91 418.737C1126.91 418.795 1127.01 418.969 1127.21 419.259 1127.42 419.549 1127.52 419.781 1127.52 419.955L1126.91 421.173 1126.91 430.221 1127.78 430.395C1127.37 431.613 1127.08 432.367 1126.91 432.657L1126.91 446.403 1124.21 446.403 1124.21 435.528C1121.08 438.159 1117.2 440.556 1112.56 442.719 1107.22 445.175 1102.78 446.403 1099.24 446.403 1094.08 446.403 1091.73 443.706 1092.2 438.312 1092.66 433.15 1097.3 428.539 1106.12 424.479 1112.56 421.521 1118.59 419.665 1124.21 418.911L1124.21 414.561C1124.21 412.879 1123.58 411.385 1122.3 410.08 1121.02 408.775 1119.57 408.123 1117.95 408.123 1116.44 408.123 1113.22 408.924 1108.29 410.525 1103.07 412.184 1100.32 413.472 1100.03 414.387L1097.24 414.387C1097.3 412.937 1099.59 411.255 1104.12 409.341 1108.06 407.659 1112.12 406.383 1116.3 405.513 1116.82 405.397 1117.34 405.339 1117.86 405.339ZM902.862 405.339C905.182 405.339 907.271 406.267 909.126 408.123 910.982 409.979 911.91 412.096 911.91 414.474L911.91 418.737C911.91 418.795 912.012 418.969 912.215 419.259 912.418 419.549 912.519 419.781 912.519 419.955L911.91 421.173 911.91 430.221 912.781 430.395C912.375 431.613 912.084 432.367 911.91 432.657L911.91 446.403 909.214 446.403 909.214 435.528C906.081 438.159 902.195 440.556 897.555 442.719 892.219 445.175 887.782 446.403 884.245 446.403 879.083 446.403 876.733 443.706 877.198 438.312 877.661 433.15 882.302 428.539 891.117 424.479 897.555 421.521 903.587 419.665 909.214 418.911L909.214 414.561C909.214 412.879 908.576 411.385 907.299 410.08 906.023 408.775 904.573 408.123 902.949 408.123 901.442 408.123 898.222 408.924 893.292 410.525 888.073 412.184 885.318 413.472 885.027 414.387L882.243 414.387C882.302 412.937 884.592 411.255 889.117 409.341 893.06 407.659 897.12 406.383 901.297 405.513 901.818 405.397 902.34 405.339 902.862 405.339ZM923.592 396.639 926.115 396.639 926.115 403.164 923.592 403.164ZM1081.07 376.542 1083.59 376.542 1083.59 445.968 1081.07 445.968Z" stroke="#000000" stroke-linejoin="round" stroke-miterlimit="10" fill-rule="evenodd"/><text fill="#000000" fill-opacity="0" font-family="Arial,Arial_MSFontService,sans-serif" font-size="86.913" x="765.98" y="452.591">mosaico y la</text><path d="M1084.3 514.472C1077.67 514.472 1071.85 516.722 1066.85 521.221 1061.26 526.182 1058.47 532.614 1058.47 540.518 1058.47 541.441 1058.5 542.364 1058.55 543.287 1058.73 545.479 1059.92 546.575 1062.13 546.575 1066.21 546.575 1070.98 543.864 1076.44 538.44 1082.49 532.499 1086.1 526.038 1087.26 519.059L1087.26 514.645C1086.28 514.53 1085.29 514.472 1084.3 514.472ZM793.297 514.472C786.665 514.472 780.848 516.722 775.846 521.221 770.26 526.182 767.468 532.614 767.468 540.518 767.468 541.441 767.497 542.364 767.555 543.287 767.73 545.479 768.922 546.575 771.133 546.575 775.205 546.575 779.976 543.864 785.444 538.44 791.494 532.499 795.101 526.038 796.265 519.059L796.265 514.645C795.276 514.53 794.287 514.472 793.297 514.472ZM991.32 513.145C990.888 513.087 990.433 513.095 989.955 513.167 980.617 514.613 974.585 520.457 971.859 530.698 971.221 533.127 970.902 535.499 970.902 537.814 970.902 540.764 971.424 543.135 972.468 544.929 973.57 546.896 975.107 547.88 977.079 547.88 977.485 547.88 977.891 547.851 978.297 547.793 983.053 546.926 986.939 544.062 989.955 539.202 991.347 536.945 993.087 532.895 995.175 527.052 995.755 525.374 996.045 523.581 996.045 521.671 996.045 519.126 995.552 517.043 994.566 515.424 993.696 514.078 992.614 513.318 991.32 513.145ZM942.652 511.427C944.74 511.427 946.567 511.949 948.133 512.993L946.132 514.994C944.856 514.066 943.406 513.602 941.782 513.602 937.722 513.602 933.604 515.937 929.428 520.606 925.252 525.275 922.816 530.306 922.12 535.7 922.004 536.512 921.946 537.324 921.946 538.136 921.946 544.11 924.846 547.097 930.646 547.097 936.156 547.097 941.289 544.777 946.045 540.137L947.872 542.051C942.71 547.155 936.968 549.707 930.646 549.707 927.282 549.707 924.614 548.808 922.642 547.01 920.496 544.98 919.423 542.051 919.423 538.223 919.423 537.295 919.481 536.338 919.597 535.352 920.351 529.378 923.178 523.897 928.079 518.909 932.98 513.921 937.838 511.427 942.652 511.427ZM909.652 511.427C911.74 511.427 913.567 511.949 915.133 512.993L913.132 514.994C911.856 514.066 910.406 513.602 908.782 513.602 904.722 513.602 900.604 515.937 896.428 520.606 892.252 525.275 889.816 530.306 889.12 535.7 889.004 536.512 888.946 537.324 888.946 538.136 888.946 544.11 891.846 547.097 897.646 547.097 903.156 547.097 908.289 544.777 913.045 540.137L914.872 542.051C909.71 547.155 903.968 549.707 897.646 549.707 894.282 549.707 891.614 548.808 889.642 547.01 887.496 544.98 886.423 542.051 886.423 538.223 886.423 537.295 886.481 536.338 886.597 535.352 887.351 529.378 890.178 523.897 895.079 518.909 899.98 513.921 904.838 511.427 909.652 511.427ZM959.426 511.253 961.949 511.253 961.949 550.403 959.426 550.403ZM811.426 511.253 813.949 511.253 813.949 550.403 811.426 550.403ZM991.521 510.519C993.348 510.747 994.914 511.775 996.219 513.602 997.785 515.864 998.568 518.706 998.568 522.128 998.568 524.158 998.249 526.072 997.611 527.87 995.407 534.076 993.464 538.513 991.782 541.181 988.36 546.459 984.01 549.562 978.732 550.49 978.21 550.606 977.717 550.664 977.253 550.664 974.469 550.664 972.265 549.33 970.641 546.662 969.133 544.168 968.379 540.978 968.379 537.092 968.379 534.772 968.669 532.423 969.249 530.045 972.149 518.677 978.935 512.181 989.607 510.557 990.274 510.456 990.912 510.443 991.521 510.519ZM823.293 510.47 825.816 510.47 825.816 520.475C830.651 513.805 836.213 510.47 842.503 510.47 843.668 510.47 844.949 510.593 846.348 510.838L846.348 513.689C845.299 513.399 844.28 513.254 843.289 513.254 836.416 513.254 830.592 517.566 825.816 526.191L825.816 550.403 823.293 550.403 823.293 526.478 822.075 526.478C822.365 525.956 822.771 525.26 823.293 524.39ZM1001.68 510.035 1004.21 510.035 1004.21 526.304C1009.97 517.72 1014.98 512.587 1019.23 510.905 1019.87 510.673 1020.45 510.557 1020.98 510.557 1023.19 510.557 1024.62 512.819 1025.26 517.343 1025.55 519.315 1025.7 523.259 1025.7 529.175L1025.7 550.403 1023.17 550.403 1023.17 529.175C1023.17 524.361 1023.08 521.171 1022.91 519.605 1022.5 516.067 1021.56 514.298 1020.1 514.298 1019.81 514.298 1019.48 514.385 1019.13 514.559 1014.51 516.531 1009.53 521.954 1004.21 530.828L1004.21 550.403 1001.68 550.403 1001.68 533.003 1000.12 533.003C1000.29 532.655 1000.81 531.785 1001.68 530.393ZM1122.91 509.774C1127.15 509.774 1129.26 511.304 1129.26 514.363 1129.26 515.345 1129.06 516.442 1128.66 517.654 1127.55 520.772 1124.71 523.427 1120.13 525.62 1116.3 527.41 1113 528.305 1110.21 528.305 1109.4 528.305 1108.88 528.189 1108.65 527.957L1110.66 524.738C1110.66 525.26 1111.15 525.521 1112.14 525.521 1114.24 525.521 1116.8 524.714 1119.84 523.1 1123.33 521.256 1125.49 519.152 1126.3 516.79 1126.6 515.925 1126.74 515.176 1126.74 514.541 1126.74 512.755 1125.6 511.862 1123.33 511.862 1121.05 511.862 1118.02 512.641 1114.22 514.2 1111.71 515.181 1109.03 517.46 1106.17 521.039 1102.61 525.483 1100.45 530.216 1099.69 535.238 1099.51 536.391 1099.42 537.459 1099.42 538.44 1099.42 544.328 1101.9 547.271 1106.84 547.271 1112.43 547.271 1118.68 543.733 1125.61 536.657L1127.52 538.484C1120.04 546.198 1113.05 550.055 1106.56 550.055 1103.6 550.055 1101.25 549.086 1099.51 547.147 1097.77 545.208 1096.9 542.386 1096.9 538.682 1096.9 537.525 1096.99 536.281 1097.16 534.95 1097.97 529.335 1100.38 524.127 1104.38 519.324 1107.57 515.446 1110.56 512.928 1113.34 511.771 1116.65 510.44 1119.84 509.774 1122.91 509.774ZM873.914 509.774C878.148 509.774 880.265 511.304 880.265 514.363 880.265 515.345 880.062 516.442 879.656 517.654 878.554 520.772 875.712 523.427 871.13 525.62 867.302 527.41 863.996 528.305 861.212 528.305 860.4 528.305 859.878 528.189 859.646 527.957L861.656 524.738C861.656 525.26 862.152 525.521 863.142 525.521 865.24 525.521 867.805 524.714 870.836 523.1 874.333 521.256 876.488 519.152 877.304 516.79 877.596 515.925 877.742 515.176 877.742 514.541 877.742 512.755 876.604 511.862 874.327 511.862 872.051 511.862 869.015 512.641 865.221 514.2 862.711 515.181 860.026 517.46 857.166 521.039 853.606 525.483 851.446 530.216 850.686 535.238 850.511 536.391 850.424 537.459 850.424 538.44 850.424 544.328 852.896 547.271 857.842 547.271 863.427 547.271 869.682 543.733 876.605 536.657L878.525 538.484C871.043 546.198 864.054 550.055 857.558 550.055 854.6 550.055 852.251 549.086 850.511 547.147 848.771 545.208 847.901 542.386 847.901 538.682 847.901 537.525 847.988 536.281 848.162 534.95 848.974 529.335 851.381 524.127 855.383 519.324 858.573 515.446 861.56 512.928 864.344 511.771 867.65 510.44 870.84 509.774 873.914 509.774ZM959.426 500.639 961.949 500.639 961.949 507.164 959.426 507.164ZM811.426 500.639 813.949 500.639 813.949 507.164 811.426 507.164ZM992.304 488.111 994.15 489.96 978.316 504.315 976.47 502.485ZM1087.26 480.194 1089.79 480.194 1089.79 549.968 1087.26 549.968 1087.26 527.348C1084.65 533.438 1080.66 538.716 1075.31 543.182 1070.25 547.3 1065.72 549.359 1061.7 549.359 1058.33 549.359 1056.41 547.648 1055.95 544.226 1055.71 542.718 1055.6 541.239 1055.6 539.789 1055.6 531.379 1058.8 524.448 1065.19 518.996 1070.89 514.124 1077.32 511.688 1084.47 511.688 1085.4 511.688 1086.33 511.688 1087.26 511.688ZM796.265 480.194 798.788 480.194 798.788 549.968 796.265 549.968 796.265 527.348C793.648 533.438 789.664 538.716 784.313 543.182 779.254 547.3 774.717 549.359 770.703 549.359 767.33 549.359 765.411 547.648 764.946 544.226 764.713 542.718 764.597 541.239 764.597 539.789 764.597 531.379 767.795 524.448 774.193 518.996 779.893 514.124 786.32 511.688 793.473 511.688 794.403 511.688 795.334 511.688 796.265 511.688Z" stroke="#000000" stroke-linejoin="round" stroke-miterlimit="10" fill-rule="evenodd"/><text fill="#000000" fill-opacity="0" font-family="Arial,Arial_MSFontService,sans-serif" font-size="70.47" x="764.597" y="541.855">dirección de</text><path d="M1059.63 629.434C1054.12 630.308 1048.61 631.938 1043.1 634.325 1035.16 637.877 1030.87 641.981 1030.23 646.638 1029.71 650.365 1031.33 652.228 1035.1 652.228 1038.7 652.228 1043.34 650.743 1049.02 647.773 1054.36 644.92 1057.89 642.271 1059.63 639.826ZM1016.85 618.385C1010.35 618.385 1004.76 620.537 1000.06 624.841 994.837 629.725 992.227 636.18 992.227 644.205 992.227 645.369 992.285 646.59 992.401 647.868 992.633 650.137 993.822 651.271 995.968 651.271 999.796 651.271 1004.35 648.567 1009.63 643.158 1015.43 637.285 1019.08 630.917 1020.59 624.055 1020.76 622.659 1021.14 620.944 1021.72 618.908 1020.15 618.559 1018.53 618.385 1016.85 618.385ZM1017.54 615.601C1019.05 615.601 1020.5 615.746 1021.89 616.036L1023.2 616.036 1023.2 670.585 1020.68 670.585 1020.68 633.001C1018 638.685 1014.1 643.615 1008.99 647.791 1004.1 651.735 999.738 653.707 995.899 653.707 992.41 653.707 990.375 651.88 989.793 648.226 989.502 646.486 989.356 644.775 989.356 643.093 989.356 634.857 992.517 628.071 998.839 622.735 1004.47 617.979 1010.7 615.601 1017.54 615.601ZM927.879 614.47 930.402 614.47 930.402 624.475C935.237 617.805 940.8 614.47 947.09 614.47 948.255 614.47 949.536 614.593 950.934 614.838L950.934 617.689C949.886 617.399 948.866 617.254 947.876 617.254 941.003 617.254 935.178 621.566 930.402 630.191L930.402 654.403 927.879 654.403 927.879 630.478 926.661 630.478C926.951 629.956 927.357 629.26 927.879 628.39ZM868.27 614.035 870.793 614.035 870.793 630.304C876.559 621.72 881.567 616.587 885.819 614.905 886.459 614.673 887.042 614.557 887.565 614.557 889.779 614.557 891.205 616.819 891.846 621.343 892.137 623.315 892.282 627.259 892.282 633.175L892.282 654.403 889.759 654.403 889.759 633.175C889.759 628.361 889.672 625.171 889.496 623.605 889.086 620.067 888.15 618.298 886.686 618.298 886.393 618.298 886.071 618.385 885.721 618.559 881.096 620.531 876.12 625.954 870.793 634.828L870.793 654.403 868.27 654.403 868.27 637.003 866.704 637.003C866.878 636.655 867.4 635.785 868.27 634.393ZM979.5 613.774C983.734 613.774 985.851 615.304 985.851 618.363 985.851 619.345 985.648 620.442 985.242 621.654 984.141 624.772 981.298 627.427 976.716 629.62 972.888 631.41 969.582 632.305 966.798 632.305 965.986 632.305 965.464 632.189 965.232 631.957L967.243 628.738C967.243 629.26 967.738 629.521 968.729 629.521 970.827 629.521 973.391 628.714 976.423 627.1 979.919 625.256 982.075 623.152 982.891 620.79 983.183 619.925 983.328 619.176 983.328 618.541 983.328 616.755 982.19 615.862 979.914 615.862 977.637 615.862 974.602 616.641 970.807 618.2 968.298 619.181 965.613 621.46 962.753 625.039 959.192 629.483 957.032 634.216 956.273 639.238 956.098 640.391 956.01 641.459 956.01 642.44 956.01 648.328 958.483 651.271 963.429 651.271 969.014 651.271 975.268 647.733 982.192 640.657L984.111 642.484C976.629 650.198 969.64 654.055 963.144 654.055 960.186 654.055 957.837 653.086 956.097 651.147 954.357 649.208 953.487 646.386 953.487 642.682 953.487 641.525 953.574 640.281 953.748 638.95 954.56 633.335 956.967 628.127 960.969 623.324 964.159 619.446 967.146 616.928 969.93 615.771 973.236 614.44 976.426 613.774 979.5 613.774ZM856.5 613.774C860.734 613.774 862.851 615.304 862.851 618.363 862.851 619.345 862.648 620.442 862.242 621.654 861.14 624.772 858.298 627.427 853.716 629.62 849.888 631.41 846.582 632.305 843.798 632.305 842.986 632.305 842.464 632.189 842.232 631.957L844.243 628.738C844.243 629.26 844.738 629.521 845.729 629.521 847.827 629.521 850.391 628.714 853.423 627.1 856.919 625.256 859.075 623.152 859.891 620.79 860.183 619.925 860.328 619.176 860.328 618.541 860.328 616.755 859.19 615.862 856.914 615.862 854.637 615.862 851.602 616.641 847.807 618.2 845.298 619.181 842.613 621.46 839.753 625.039 836.192 629.483 834.032 634.216 833.273 639.238 833.098 640.391 833.01 641.459 833.01 642.44 833.01 648.328 835.483 651.271 840.429 651.271 846.014 651.271 852.268 647.733 859.192 640.657L861.111 642.484C853.629 650.198 846.64 654.055 840.144 654.055 837.186 654.055 834.837 653.086 833.097 651.147 831.357 649.208 830.487 646.386 830.487 642.682 830.487 641.525 830.574 640.281 830.748 638.95 831.56 633.335 833.967 628.127 837.969 623.324 841.159 619.446 844.146 616.928 846.93 615.771 850.236 614.44 853.426 613.774 856.5 613.774ZM1053.28 613.339C1055.6 613.339 1057.69 614.267 1059.55 616.123 1061.4 617.979 1062.33 620.096 1062.33 622.474L1062.33 626.737C1062.33 626.795 1062.43 626.969 1062.64 627.259 1062.84 627.549 1062.94 627.781 1062.94 627.955L1062.33 629.173 1062.33 638.221 1063.2 638.395C1062.79 639.613 1062.5 640.367 1062.33 640.657L1062.33 654.403 1059.63 654.403 1059.63 643.528C1056.5 646.159 1052.62 648.556 1047.98 650.719 1042.64 653.175 1038.2 654.403 1034.66 654.403 1029.5 654.403 1027.15 651.706 1027.62 646.312 1028.08 641.15 1032.72 636.539 1041.54 632.479 1047.98 629.521 1054.01 627.665 1059.63 626.911L1059.63 622.561C1059.63 620.879 1059 619.385 1057.72 618.081 1056.44 616.776 1054.99 616.123 1053.37 616.123 1051.86 616.123 1048.64 616.924 1043.71 618.525 1038.49 620.184 1035.74 621.472 1035.45 622.387L1032.66 622.387C1032.72 620.937 1035.01 619.255 1039.54 617.341 1043.48 615.659 1047.54 614.383 1051.72 613.513 1052.24 613.397 1052.76 613.339 1053.28 613.339ZM903.229 593.938 905.752 593.938 905.752 618.941 918.541 613.253 918.536 616.111 905.752 621.797 905.752 644.163C905.752 647.053 905.781 648.642 905.839 648.932 906.131 650.723 906.976 651.619 908.373 651.619 909.014 651.619 909.801 651.417 910.733 651.014 913.355 649.918 916.035 647.583 918.773 644.008 920.928 641.241 922.354 638.906 923.053 637.003L925.762 637.003C924.95 639.497 923.297 642.368 920.803 645.616 917.787 649.618 914.742 652.257 911.668 653.533 910.276 654.113 909.058 654.403 908.014 654.403 905.868 654.403 904.447 653.182 903.751 650.74 903.403 649.461 903.229 647.281 903.229 644.2L903.229 622.92 894.089 626.986 894.094 624.094 903.229 620.064Z" stroke="#000000" stroke-linejoin="round" stroke-miterlimit="10" fill-rule="evenodd"/><text fill="#000000" fill-opacity="0" font-family="Arial,Arial_MSFontService,sans-serif" font-size="76.647" x="830.487" y="661.004">entrega</text><g clip-path="url(#clip1)"><g clip-path="url(#clip2)"><g clip-path="url(#clip3)"><path d="M188.365 136.635 201.229 149.5 227.094 123.771" stroke="#7F7F7F" stroke-width="20.3125" stroke-miterlimit="10" fill="none" transform="matrix(1.00308 0 0 1 222 159)"/><path d="M188.365 188.365 201.229 201.229 227.094 175.5" stroke="#7F7F7F" stroke-width="20.3125" stroke-miterlimit="10" fill="none" transform="matrix(1.00308 0 0 1 222 159)"/><path d="M97.9062 149.635 149.635 149.635" stroke="#7F7F7F" stroke-width="20.3125" stroke-miterlimit="10" fill="none" transform="matrix(1.00308 0 0 1 222 159)"/><path d="M97.9062 201.229 149.635 201.229" stroke="#7F7F7F" stroke-width="20.3125" stroke-miterlimit="10" fill="none" transform="matrix(1.00308 0 0 1 222 159)"/><path d="M188.365 240.094 201.229 252.958 227.094 227.094" stroke="#7F7F7F" stroke-width="20.3125" stroke-miterlimit="10" fill="none" transform="matrix(1.00308 0 0 1 222 159)"/><path d="M97.9062 252.958 149.635 252.958" stroke="#7F7F7F" stroke-width="20.3125" stroke-miterlimit="10" fill="none" transform="matrix(1.00308 0 0 1 222 159)"/><path d="M278.823 84.9062 278.823 304.688 46.1771 304.688 46.1771 20.3125 214.229 20.3125 278.823 84.9062Z" stroke="#7F7F7F" stroke-width="20.3125" stroke-miterlimit="10" fill="none" transform="matrix(1.00308 0 0 1 222 159)"/><path d="M278.823 84.9062 278.823 97.9062 201.229 97.9062 201.229 20.3125 214.229 20.3125 278.823 84.9062Z" stroke="#7F7F7F" stroke-width="20.3125" stroke-miterlimit="10" fill="none" transform="matrix(1.00308 0 0 1 222 159)"/></g></g></g></g></svg>