<svg width="1280" height="720" xmlns="http://www.w3.org/2000/svg" xmlns:xlink="http://www.w3.org/1999/xlink" overflow="hidden"><defs><clipPath id="clip0"><rect x="0" y="0" width="1280" height="720"/></clipPath><clipPath id="clip1"><rect x="228" y="168" width="318" height="318"/></clipPath><clipPath id="clip2"><rect x="228" y="168" width="318" height="318"/></clipPath><clipPath id="clip3"><rect x="228" y="168" width="318" height="318"/></clipPath></defs><g clip-path="url(#clip0)"><rect x="0" y="0" width="1280" height="720" fill="#FFFFFF"/><path d="M83 332C83 176.808 218.21 51 385 51 551.79 51 687 176.808 687 332 687 487.192 551.79 613 385 613 218.21 613 83 487.192 83 332Z" stroke="#000000" stroke-width="4" stroke-miterlimit="8" fill="#FFFFFF" fill-rule="evenodd"/><path d="M860.847 116.107 862.253 118.93 842.682 142.15C848.942 138.476 854.768 136.639 860.159 136.639 864.493 136.639 867.734 138.021 869.884 140.786 871.149 142.431 871.782 144.469 871.782 146.898 871.782 150.702 870.331 154.931 867.43 159.587 864.635 164.467 861.336 168.285 857.534 171.042 853.906 175.322 848.578 178.634 841.548 180.978 837.054 182.913 833.306 183.88 830.303 183.88 829.807 183.88 829.205 183.795 828.495 183.626L828.495 179.53C829.36 179.53 830.049 179.53 830.561 179.53 833.239 179.53 836.944 178.613 841.678 176.78 847.084 174.668 851.173 172.572 853.945 170.493 857.814 166.274 861.128 162.103 863.887 157.978 866.482 153.936 867.78 150.393 867.78 147.35 867.78 145.845 867.785 144.687 867.796 143.876 865.452 141.661 862.69 140.554 859.511 140.554 855.11 140.554 850.097 142.159 844.473 145.368 839.42 148.252 836.893 150.636 836.893 152.521L831.909 150.142 854.927 122.405 826.014 133.901 826.021 129.793Z" stroke="#000000" stroke-width="3" stroke-linejoin="round" stroke-miterlimit="10" fill-rule="evenodd"/><text fill="#000000" fill-opacity="0" font-family="Arial,Arial_MSFontService,sans-serif" font-size="67.773" x="826.014" y="175.408">3</text><path d="M884.575 172.135 888.925 172.135 888.925 186.403 884.575 186.403ZM1061.19 149.819C1060.85 149.785 1060.49 149.803 1060.11 149.874 1051.31 151.237 1045.62 156.763 1043.04 166.451 1042.44 168.736 1042.14 170.989 1042.14 173.21 1042.14 175.987 1042.55 178.085 1043.38 179.504 1044.43 181.377 1045.75 182.314 1047.34 182.314 1047.7 182.314 1048.12 182.256 1048.58 182.141 1052.84 181.414 1056.4 178.757 1059.24 174.17 1060.57 172.028 1062.29 167.985 1064.41 162.043 1064.88 160.711 1065.11 159.149 1065.11 157.357 1065.11 155.031 1064.64 153.096 1063.7 151.554 1063.04 150.501 1062.21 149.923 1061.19 149.819ZM1028.84 146.383 1033.1 146.383 1033.1 186.403 1028.84 186.403ZM995.443 145.85 1006.5 179.357 1017.99 145.968 1022.19 145.861 1008.02 185.968 1004.9 185.968 991.18 145.952ZM1061.62 145.618C1063.62 145.805 1065.27 146.794 1066.56 148.585 1068.38 151.248 1069.28 154.324 1069.28 157.815 1069.28 159.902 1068.95 161.879 1068.29 163.744 1066.1 169.901 1064.22 174.059 1062.63 176.219 1059.04 182.116 1054.49 185.541 1048.98 186.493 1048.54 186.607 1048.06 186.664 1047.53 186.664 1044.47 186.664 1042.06 185.22 1040.3 182.332 1038.74 179.751 1037.96 176.469 1037.96 172.487 1037.96 170.127 1038.25 167.763 1038.83 165.394 1041.75 153.917 1048.64 147.352 1059.5 145.699 1060.24 145.583 1060.95 145.556 1061.62 145.618ZM963.267 145.165 967.53 145.165 967.53 161.022C972.167 152.79 976.677 147.803 981.061 146.062 981.749 145.812 982.404 145.687 983.024 145.687 985.69 145.687 987.368 148.131 988.058 153.019 988.351 155.009 988.497 158.91 988.497 164.722L988.497 186.403 984.234 186.403 984.234 164.714C984.234 160.065 984.149 156.973 983.979 155.438 983.638 152.475 983.017 150.994 982.115 150.994 981.975 150.994 981.808 151.042 981.613 151.139 977.216 153.03 972.522 158.168 967.53 166.555L967.53 186.403 963.267 186.403 963.267 169.333 961.701 169.333C961.934 168.185 962.456 166.975 963.267 165.702ZM1038.3 122.631 1040.94 125.337 1024.49 140.224 1021.88 137.577ZM951.904 113.584 951.85 117.828 925.921 130.333 925.921 147.708 953.579 133.711 953.643 137.932 925.921 151.947 925.921 181.466 954.922 166.973 954.872 171.289 923.457 186.839 921.658 185.241 921.658 115.363 925.921 115.363 925.921 126.115Z" stroke="#000000" stroke-width="3" stroke-linejoin="round" stroke-miterlimit="10" fill-rule="evenodd"/><text fill="#000000" fill-opacity="0" font-family="Arial,Arial_MSFontService,sans-serif" font-size="73.2554" x="884.575" y="177.682">. Envío</text><path d="M1048.21 265.434C1042.7 266.308 1037.19 267.938 1031.68 270.325 1023.73 273.877 1019.44 277.981 1018.8 282.638 1018.28 286.365 1019.91 288.228 1023.68 288.228 1027.27 288.228 1031.91 286.743 1037.6 283.773 1042.93 280.92 1046.47 278.271 1048.21 275.826ZM1003.73 254.907C1000.05 254.907 993.454 257.633 983.936 263.085L983.936 288.228C989.075 286.372 993.979 283.791 998.65 280.485 1006.06 275.149 1009.89 269.523 1010.12 263.607 1010.36 257.807 1008.22 254.907 1003.73 254.907ZM1112.48 253.145C1112.05 253.087 1111.6 253.094 1111.12 253.167 1101.78 254.613 1095.75 260.457 1093.02 270.697 1092.38 273.127 1092.07 275.499 1092.07 277.814 1092.07 280.764 1092.59 283.135 1093.63 284.929 1094.73 286.896 1096.27 287.88 1098.24 287.88 1098.65 287.88 1099.05 287.851 1099.46 287.793 1104.22 286.926 1108.1 284.062 1111.12 279.202 1112.51 276.945 1114.25 272.895 1116.34 267.052 1116.92 265.374 1117.21 263.581 1117.21 261.671 1117.21 259.126 1116.72 257.043 1115.73 255.424 1114.86 254.078 1113.78 253.318 1112.48 253.145ZM910.483 253.145C910.052 253.087 909.597 253.094 909.118 253.167 899.78 254.613 893.748 260.457 891.022 270.697 890.384 273.127 890.065 275.499 890.065 277.814 890.065 280.764 890.587 283.135 891.631 284.929 892.733 286.896 894.27 287.88 896.242 287.88 896.648 287.88 897.054 287.851 897.46 287.793 902.216 286.926 906.102 284.062 909.118 279.202 910.51 276.945 912.25 272.895 914.338 267.052 914.918 265.374 915.208 263.581 915.208 261.671 915.208 259.126 914.715 257.043 913.729 255.424 912.859 254.078 911.777 253.318 910.483 253.145ZM811.483 253.145C811.052 253.087 810.597 253.094 810.118 253.167 800.78 254.613 794.748 260.457 792.022 270.697 791.384 273.127 791.065 275.499 791.065 277.814 791.065 280.764 791.587 283.135 792.631 284.929 793.733 286.896 795.27 287.88 797.242 287.88 797.648 287.88 798.054 287.851 798.46 287.793 803.216 286.926 807.102 284.062 810.118 279.202 811.51 276.945 813.25 272.895 815.338 267.052 815.918 265.374 816.208 263.581 816.208 261.671 816.208 259.126 815.715 257.043 814.729 255.424 813.859 254.078 812.777 253.318 811.483 253.145ZM1142.96 250.883C1144.27 250.811 1145.61 250.818 1146.99 250.905L1146.99 253.515C1142 253.167 1137.62 253.877 1133.85 255.646 1130.08 257.415 1127.36 260.127 1125.68 263.781 1125.44 264.361 1125.33 264.854 1125.33 265.26 1125.33 266.304 1126.28 266.826 1128.2 266.826 1129.3 266.826 1131.69 266.536 1135.38 265.956 1139.06 265.376 1141.83 265.086 1143.68 265.086 1148.67 265.086 1151.17 266.884 1151.17 270.48 1151.17 271.408 1151.02 272.452 1150.73 273.612 1148.76 281.094 1139.74 286.836 1123.67 290.838L1123.67 288.141C1130.32 286.459 1135 285.009 1137.72 283.791 1143.5 281.123 1147 277.73 1148.21 273.612 1148.5 272.684 1148.64 271.872 1148.64 271.176 1148.64 268.682 1146.85 267.435 1143.27 267.435 1141.71 267.435 1139.03 267.754 1135.25 268.392 1131.46 269.03 1128.82 269.349 1127.31 269.349 1124.07 269.349 1122.46 268.247 1122.46 266.043 1122.46 265.405 1122.6 264.651 1122.89 263.781 1124.23 259.431 1127.27 256.067 1132.03 253.689 1135.38 252.036 1139.02 251.101 1142.96 250.883ZM1076.96 250.883C1078.27 250.811 1079.61 250.818 1080.99 250.905L1080.99 253.515C1076 253.167 1071.62 253.877 1067.85 255.646 1064.08 257.415 1061.36 260.127 1059.68 263.781 1059.44 264.361 1059.33 264.854 1059.33 265.26 1059.33 266.304 1060.28 266.826 1062.2 266.826 1063.3 266.826 1065.69 266.536 1069.38 265.956 1073.06 265.376 1075.83 265.086 1077.68 265.086 1082.67 265.086 1085.17 266.884 1085.17 270.48 1085.17 271.408 1085.02 272.452 1084.73 273.612 1082.76 281.094 1073.74 286.836 1057.67 290.838L1057.67 288.141C1064.32 286.459 1069 285.009 1071.72 283.791 1077.5 281.123 1081 277.73 1082.21 273.612 1082.5 272.684 1082.64 271.872 1082.64 271.176 1082.64 268.682 1080.85 267.435 1077.27 267.435 1075.71 267.435 1073.03 267.754 1069.25 268.392 1065.46 269.03 1062.82 269.349 1061.31 269.349 1058.07 269.349 1056.46 268.247 1056.46 266.043 1056.46 265.405 1056.6 264.651 1056.89 263.781 1058.23 259.431 1061.27 256.067 1066.03 253.689 1069.38 252.036 1073.02 251.101 1076.96 250.883ZM941.956 250.883C943.268 250.811 944.613 250.818 945.99 250.905L945.99 253.515C941.002 253.167 936.623 253.877 932.853 255.646 929.083 257.415 926.357 260.127 924.675 263.781 924.443 264.361 924.327 264.854 924.327 265.26 924.327 266.304 925.284 266.826 927.198 266.826 928.3 266.826 930.693 266.536 934.376 265.956 938.059 265.376 940.828 265.086 942.684 265.086 947.672 265.086 950.166 266.884 950.166 270.48 950.166 271.408 950.021 272.452 949.731 273.612 947.759 281.094 938.74 286.836 922.674 290.838L922.674 288.141C929.321 286.459 934.002 285.009 936.719 283.791 942.499 281.123 945.996 277.73 947.209 273.612 947.499 272.684 947.643 271.872 947.643 271.176 947.643 268.682 945.851 267.435 942.267 267.435 940.706 267.435 938.033 267.754 934.246 268.392 930.46 269.03 927.815 269.349 926.312 269.349 923.075 269.349 921.456 268.247 921.456 266.043 921.456 265.405 921.601 264.651 921.891 263.781 923.225 259.431 926.27 256.067 931.026 253.689 934.376 252.036 938.019 251.101 941.956 250.883ZM1112.68 250.519C1114.51 250.747 1116.08 251.775 1117.38 253.602 1118.95 255.864 1119.73 258.706 1119.73 262.128 1119.73 264.158 1119.41 266.072 1118.77 267.87 1116.57 274.076 1114.63 278.513 1112.95 281.181 1109.52 286.459 1105.17 289.562 1099.9 290.49 1099.37 290.606 1098.88 290.664 1098.42 290.664 1095.63 290.664 1093.43 289.33 1091.8 286.662 1090.3 284.168 1089.54 280.978 1089.54 277.092 1089.54 274.772 1089.83 272.423 1090.41 270.045 1093.31 258.677 1100.1 252.181 1110.77 250.557 1111.44 250.455 1112.08 250.443 1112.68 250.519ZM910.684 250.519C912.511 250.747 914.077 251.775 915.382 253.602 916.948 255.864 917.731 258.706 917.731 262.128 917.731 264.158 917.412 266.072 916.774 267.87 914.57 274.076 912.627 278.513 910.945 281.181 907.523 286.459 903.173 289.562 897.895 290.49 897.373 290.606 896.88 290.664 896.416 290.664 893.632 290.664 891.428 289.33 889.804 286.662 888.296 284.168 887.542 280.978 887.542 277.092 887.542 274.772 887.832 272.423 888.412 270.045 891.312 258.677 898.098 252.181 908.77 250.557 909.437 250.455 910.075 250.443 910.684 250.519ZM811.684 250.519C813.511 250.747 815.077 251.775 816.382 253.602 817.948 255.864 818.731 258.706 818.731 262.128 818.731 264.158 818.412 266.072 817.774 267.87 815.57 274.076 813.627 278.513 811.945 281.181 808.523 286.459 804.173 289.562 798.895 290.49 798.373 290.606 797.88 290.664 797.416 290.664 794.632 290.664 792.428 289.33 790.804 286.662 789.296 284.168 788.542 280.978 788.542 277.092 788.542 274.772 788.832 272.423 789.412 270.045 792.312 258.677 799.098 252.181 809.77 250.557 810.437 250.455 811.075 250.443 811.684 250.519ZM820.847 250.035 823.37 250.035 823.37 266.304C829.136 257.72 834.144 252.587 838.395 250.905 839.036 250.673 839.618 250.557 840.142 250.557 842.355 250.557 843.782 252.819 844.423 257.343 844.714 259.315 844.859 263.259 844.859 269.175L844.859 290.403 842.336 290.403 842.336 269.175C842.336 264.361 842.248 261.171 842.072 259.605 841.663 256.067 840.726 254.298 839.263 254.298 838.97 254.298 838.648 254.385 838.297 254.559 833.673 256.531 828.697 261.954 823.37 270.828L823.37 290.403 820.847 290.403 820.847 273.003 819.281 273.003C819.455 272.655 819.977 271.785 820.847 270.393ZM1041.86 249.339C1044.18 249.339 1046.27 250.267 1048.12 252.123 1049.98 253.979 1050.91 256.096 1050.91 258.474L1050.91 262.737C1050.91 262.795 1051.01 262.969 1051.21 263.259 1051.41 263.549 1051.52 263.781 1051.52 263.955L1050.91 265.173 1050.91 274.221 1051.78 274.395C1051.37 275.613 1051.08 276.367 1050.91 276.657L1050.91 290.403 1048.21 290.403 1048.21 279.528C1045.08 282.159 1041.19 284.556 1036.55 286.719 1031.22 289.175 1026.78 290.403 1023.24 290.403 1018.08 290.403 1015.73 287.706 1016.19 282.312 1016.66 277.15 1021.3 272.539 1030.11 268.479 1036.55 265.521 1042.58 263.665 1048.21 262.911L1048.21 258.561C1048.21 256.879 1047.57 255.385 1046.3 254.08 1045.02 252.775 1043.57 252.123 1041.95 252.123 1040.44 252.123 1037.22 252.924 1032.29 254.525 1027.07 256.184 1024.31 257.472 1024.02 258.387L1021.24 258.387C1021.3 256.937 1023.59 255.255 1028.11 253.341 1032.06 251.659 1036.12 250.383 1040.29 249.513 1040.82 249.397 1041.34 249.339 1041.86 249.339ZM981.413 248.556 983.936 248.556 983.936 259.692C992.662 254.82 999.324 252.384 1003.92 252.384 1009.85 252.384 1012.76 256.125 1012.65 263.607 1012.53 270.567 1008.46 276.947 1000.43 282.747 995.775 286.169 990.277 289.069 983.936 291.447L983.936 308.847 981.413 308.847 981.413 263.781 980.369 261.693C980.369 261.693 980.717 261.519 981.413 261.171ZM775.82 222.108C777.966 222.108 780.054 222.398 782.084 222.978L782.084 225.588C780.108 225.008 778.073 224.718 775.981 224.718 767.784 224.718 760.401 228.454 753.832 235.926 747.089 243.629 743.659 252.693 743.543 263.119 743.369 278.12 747.409 286.2 755.663 287.358 757.059 287.532 758.396 287.619 759.675 287.619 767.872 287.619 774.499 283.356 779.557 274.83L781.562 276.657C776.168 285.821 768.918 290.403 759.812 290.403 758.42 290.403 756.941 290.287 755.375 290.055 745.631 288.663 740.846 279.702 741.02 263.172 741.136 251.978 744.848 242.263 752.156 234.027 759.232 226.081 767.12 222.108 775.82 222.108ZM877.065 220.542 879.588 220.542 879.588 289.968 877.065 289.968Z" stroke="#000000" stroke-linejoin="round" stroke-miterlimit="10" fill-rule="evenodd"/><text fill="#000000" fill-opacity="0" font-family="Arial,Arial_MSFontService,sans-serif" font-size="88.305" x="741.016" y="297.809">Con los pasos</text><path d="M1143.38 369.434C1137.87 370.308 1132.36 371.938 1126.85 374.325 1118.9 377.877 1114.61 381.981 1113.97 386.638 1113.45 390.365 1115.07 392.228 1118.84 392.228 1122.44 392.228 1127.08 390.743 1132.76 387.773 1138.1 384.92 1141.64 382.271 1143.38 379.826ZM778.377 369.434C772.867 370.308 767.357 371.938 761.847 374.325 753.901 377.877 749.609 381.981 748.971 386.638 748.449 390.365 750.073 392.228 753.843 392.228 757.439 392.228 762.079 390.743 767.763 387.773 773.099 384.92 776.637 382.271 778.377 379.826ZM947.65 357.145C947.218 357.087 946.763 357.094 946.285 357.167 936.947 358.613 930.915 364.457 928.189 374.697 927.551 377.127 927.232 379.499 927.232 381.814 927.232 384.764 927.754 387.135 928.798 388.929 929.9 390.896 931.437 391.88 933.409 391.88 933.815 391.88 934.221 391.851 934.627 391.793 939.383 390.926 943.269 388.062 946.285 383.202 947.677 380.945 949.417 376.895 951.505 371.052 952.085 369.374 952.375 367.581 952.375 365.671 952.375 363.126 951.882 361.043 950.896 359.424 950.026 358.078 948.944 357.318 947.65 357.145ZM915.756 355.253 918.279 355.253 918.279 394.403 915.756 394.403ZM1043.12 354.883C1044.43 354.811 1045.78 354.818 1047.16 354.905L1047.16 357.515C1042.17 357.167 1037.79 357.877 1034.02 359.646 1030.25 361.415 1027.52 364.127 1025.84 367.781 1025.61 368.361 1025.49 368.854 1025.49 369.26 1025.49 370.304 1026.45 370.826 1028.36 370.826 1029.47 370.826 1031.86 370.536 1035.54 369.956 1039.23 369.376 1041.99 369.086 1043.85 369.086 1048.84 369.086 1051.33 370.884 1051.33 374.48 1051.33 375.408 1051.19 376.452 1050.9 377.612 1048.93 385.094 1039.91 390.836 1023.84 394.838L1023.84 392.141C1030.49 390.459 1035.17 389.009 1037.89 387.791 1043.67 385.123 1047.16 381.73 1048.38 377.612 1048.67 376.684 1048.81 375.872 1048.81 375.176 1048.81 372.682 1047.02 371.435 1043.43 371.435 1041.87 371.435 1039.2 371.754 1035.41 372.392 1031.63 373.03 1028.98 373.349 1027.48 373.349 1024.24 373.349 1022.62 372.247 1022.62 370.043 1022.62 369.405 1022.77 368.651 1023.06 367.781 1024.39 363.431 1027.44 360.067 1032.19 357.689 1035.54 356.036 1039.19 355.101 1043.12 354.883ZM947.851 354.519C949.678 354.747 951.244 355.775 952.549 357.602 954.115 359.864 954.898 362.706 954.898 366.128 954.898 368.158 954.579 370.072 953.941 371.87 951.737 378.076 949.794 382.513 948.112 385.181 944.69 390.459 940.34 393.562 935.062 394.49 934.54 394.606 934.047 394.664 933.583 394.664 930.799 394.664 928.595 393.33 926.971 390.662 925.463 388.168 924.709 384.978 924.709 381.092 924.709 378.772 924.999 376.423 925.579 374.045 928.479 362.677 935.265 356.181 945.937 354.557 946.604 354.455 947.242 354.443 947.851 354.519ZM957.623 354.47 960.146 354.47 960.146 364.475C964.981 357.805 970.543 354.47 976.833 354.47 977.998 354.47 979.279 354.593 980.678 354.838L980.678 357.689C979.629 357.399 978.61 357.254 977.619 357.254 970.746 357.254 964.922 361.566 960.146 370.191L960.146 394.403 957.623 394.403 957.623 370.478 956.405 370.478C956.695 369.956 957.101 369.26 957.623 368.39ZM883.623 354.47 886.146 354.47 886.146 364.475C890.981 357.805 896.543 354.47 902.833 354.47 903.998 354.47 905.279 354.593 906.678 354.838L906.678 357.689C905.629 357.399 904.61 357.254 903.619 357.254 896.746 357.254 890.922 361.566 886.146 370.191L886.146 394.403 883.623 394.403 883.623 370.478 882.405 370.478C882.695 369.956 883.101 369.26 883.623 368.39ZM1081.23 354.035 1083.75 354.035 1083.75 384.155C1083.75 387.163 1083.75 388.755 1083.75 388.929 1084.05 390.722 1084.9 391.619 1086.3 391.619 1086.95 391.619 1087.74 391.416 1088.67 391.011 1091.07 390.028 1093.74 388.032 1096.67 385.022 1099.01 382.591 1100.8 380.335 1102.02 378.252L1102.02 354.035 1104.55 354.035 1104.55 374.654 1105.85 375.959C1104.98 377.815 1104.55 378.859 1104.55 379.091L1104.55 411.455 1102.02 411.455 1102.02 382.919C1097.77 388.429 1093.67 391.967 1089.71 393.533 1088.31 394.113 1087.09 394.403 1086.04 394.403 1083.88 394.403 1082.46 393.185 1081.76 390.749 1081.41 389.473 1081.23 387.298 1081.23 384.224ZM787.014 354.035 789.537 354.035 789.537 370.304C795.302 361.72 800.311 356.587 804.562 354.905 805.203 354.673 805.785 354.557 806.309 354.557 808.522 354.557 809.949 356.819 810.589 361.343 810.88 363.315 811.026 367.259 811.026 373.175L811.026 394.403 808.503 394.403 808.503 373.175C808.503 368.361 808.415 365.171 808.239 363.605 807.829 360.067 806.893 358.298 805.429 358.298 805.137 358.298 804.815 358.385 804.464 358.559 799.84 360.531 794.864 365.954 789.537 374.828L789.537 394.403 787.014 394.403 787.014 377.003 785.448 377.003C785.622 376.655 786.144 375.785 787.014 374.393ZM1009.24 353.774C1013.48 353.774 1015.59 355.304 1015.59 358.363 1015.59 359.345 1015.39 360.442 1014.99 361.654 1013.88 364.772 1011.04 367.427 1006.46 369.62 1002.63 371.41 999.326 372.305 996.542 372.305 995.73 372.305 995.208 372.189 994.976 371.957L996.986 368.738C996.986 369.26 997.482 369.521 998.472 369.521 1000.57 369.521 1003.13 368.714 1006.17 367.1 1009.66 365.256 1011.82 363.152 1012.63 360.79 1012.93 359.925 1013.07 359.176 1013.07 358.541 1013.07 356.755 1011.93 355.862 1009.66 355.862 1007.38 355.862 1004.35 356.641 1000.55 358.2 998.041 359.181 995.356 361.46 992.496 365.039 988.936 369.483 986.776 374.216 986.016 379.238 985.841 380.391 985.754 381.459 985.754 382.44 985.754 388.327 988.227 391.271 993.172 391.271 998.757 391.271 1005.01 387.733 1011.94 380.657L1013.85 382.484C1006.37 390.198 999.384 394.055 992.888 394.055 989.93 394.055 987.581 393.086 985.841 391.147 984.101 389.208 983.231 386.386 983.231 382.682 983.231 381.525 983.318 380.281 983.492 378.95 984.304 373.335 986.711 368.127 990.713 363.324 993.903 359.446 996.89 356.928 999.674 355.771 1002.98 354.44 1006.17 353.774 1009.24 353.774ZM870.244 353.774C874.478 353.774 876.595 355.304 876.595 358.363 876.595 359.345 876.392 360.442 875.986 361.654 874.884 364.772 872.042 367.427 867.46 369.62 863.632 371.41 860.326 372.305 857.542 372.305 856.73 372.305 856.208 372.189 855.976 371.957L857.986 368.738C857.986 369.26 858.482 369.521 859.472 369.521 861.57 369.521 864.135 368.714 867.166 367.1 870.662 365.256 872.818 363.152 873.634 360.79 873.926 359.925 874.072 359.176 874.072 358.541 874.072 356.755 872.934 355.862 870.657 355.862 868.381 355.862 865.345 356.641 861.551 358.2 859.041 359.181 856.356 361.46 853.496 365.039 849.936 369.483 847.776 374.216 847.016 379.238 846.841 380.391 846.754 381.459 846.754 382.44 846.754 388.327 849.227 391.271 854.172 391.271 859.757 391.271 866.012 387.733 872.935 380.657L874.855 382.484C867.373 390.198 860.384 394.055 853.888 394.055 850.93 394.055 848.581 393.086 846.841 391.147 845.101 389.208 844.231 386.386 844.231 382.682 844.231 381.525 844.318 380.281 844.492 378.95 845.304 373.335 847.711 368.127 851.713 363.324 854.903 359.446 857.89 356.928 860.674 355.771 863.98 354.44 867.17 353.774 870.244 353.774ZM1137.03 353.339C1139.35 353.339 1141.43 354.267 1143.29 356.123 1145.15 357.979 1146.07 360.096 1146.07 362.474L1146.07 366.737C1146.07 366.795 1146.18 366.969 1146.38 367.259 1146.58 367.549 1146.68 367.781 1146.68 367.955L1146.07 369.173 1146.07 378.221 1146.94 378.395C1146.54 379.613 1146.25 380.367 1146.07 380.657L1146.07 394.403 1143.38 394.403 1143.38 383.528C1140.24 386.159 1136.36 388.556 1131.72 390.719 1126.38 393.175 1121.95 394.403 1118.41 394.403 1113.25 394.403 1110.9 391.706 1111.36 386.312 1111.82 381.15 1116.46 376.539 1125.28 372.479 1131.72 369.521 1137.75 367.665 1143.38 366.911L1143.38 362.561C1143.38 360.879 1142.74 359.385 1141.46 358.08 1140.19 356.775 1138.74 356.123 1137.11 356.123 1135.6 356.123 1132.39 356.924 1127.46 358.525 1122.24 360.184 1119.48 361.472 1119.19 362.387L1116.41 362.387C1116.46 360.937 1118.76 359.255 1123.28 357.341 1127.22 355.659 1131.28 354.383 1135.46 353.513 1135.98 353.397 1136.5 353.339 1137.03 353.339ZM772.026 353.339C774.346 353.339 776.434 354.267 778.29 356.123 780.146 357.979 781.074 360.096 781.074 362.474L781.074 366.737C781.074 366.795 781.175 366.969 781.378 367.259 781.581 367.549 781.683 367.781 781.683 367.955L781.074 369.173 781.074 378.221 781.944 378.395C781.538 379.613 781.248 380.367 781.074 380.657L781.074 394.403 778.377 394.403 778.377 383.528C775.245 386.159 771.359 388.556 766.719 390.719 761.383 393.175 756.946 394.403 753.408 394.403 748.246 394.403 745.897 391.706 746.361 386.312 746.825 381.15 751.465 376.539 760.281 372.479 766.719 369.521 772.751 367.665 778.377 366.911L778.377 362.561C778.377 360.879 777.739 359.385 776.463 358.08 775.187 356.775 773.737 356.123 772.113 356.123 770.605 356.123 767.386 356.924 762.456 358.525 757.236 360.184 754.481 361.472 754.191 362.387L751.407 362.387C751.465 360.937 753.756 359.255 758.28 357.341 762.224 355.659 766.284 354.383 770.46 353.513 770.982 353.397 771.504 353.339 772.026 353.339ZM915.756 344.639 918.279 344.639 918.279 351.164 915.756 351.164ZM821.973 333.938 824.496 333.938 824.496 358.941 837.285 353.253 837.279 356.111 824.496 361.797 824.496 384.163C824.496 387.053 824.525 388.642 824.583 388.931 824.875 390.723 825.719 391.619 827.117 391.619 827.757 391.619 828.544 391.417 829.477 391.014 832.098 389.918 834.778 387.583 837.516 384.008 839.671 381.241 841.098 378.906 841.797 377.003L844.506 377.003C843.694 379.497 842.041 382.368 839.547 385.616 836.531 389.618 833.486 392.257 830.412 393.533 829.02 394.113 827.802 394.403 826.758 394.403 824.612 394.403 823.191 393.182 822.495 390.739 822.147 389.461 821.973 387.281 821.973 384.2L821.973 362.92 812.832 366.986 812.838 364.094 821.973 360.064Z" stroke="#000000" stroke-linejoin="round" stroke-miterlimit="10" fill-rule="evenodd"/><text fill="#000000" fill-opacity="0" font-family="Arial,Arial_MSFontService,sans-serif" font-size="77.517" x="746.303" y="401.765">anteriores ya</text><path d="M1102.46 473.434C1096.95 474.308 1091.44 475.938 1085.93 478.325 1077.99 481.877 1073.7 485.981 1073.06 490.638 1072.54 494.365 1074.16 496.228 1077.93 496.228 1081.53 496.228 1086.17 494.743 1091.85 491.773 1097.19 488.92 1100.72 486.271 1102.46 483.826ZM1059.71 462.472C1053.08 462.472 1047.26 464.722 1042.26 469.221 1036.68 474.182 1033.88 480.614 1033.88 488.518 1033.88 489.441 1033.91 490.364 1033.97 491.287 1034.15 493.479 1035.34 494.575 1037.55 494.575 1041.62 494.575 1046.39 491.863 1051.86 486.44 1057.91 480.499 1061.52 474.038 1062.68 467.059L1062.68 462.645C1061.69 462.53 1060.7 462.472 1059.71 462.472ZM952.889 462.472C946.257 462.472 940.353 464.699 935.175 469.153 929.474 474.071 926.623 480.347 926.623 487.983 926.623 489.257 926.711 490.558 926.886 491.889 927.235 494.666 928.689 496.054 931.248 496.054 935.321 496.054 939.975 493.277 945.21 487.724 950.911 481.765 954.373 475.257 955.594 468.199L955.594 462.646C954.722 462.53 953.82 462.472 952.889 462.472ZM889.736 461.145C889.305 461.087 888.85 461.094 888.371 461.167 879.033 462.613 873.001 468.457 870.275 478.697 869.637 481.127 869.318 483.499 869.318 485.814 869.318 488.764 869.84 491.135 870.884 492.929 871.986 494.896 873.523 495.88 875.495 495.88 875.901 495.88 876.307 495.851 876.713 495.793 881.469 494.926 885.355 492.062 888.371 487.202 889.763 484.945 891.503 480.895 893.591 475.052 894.171 473.374 894.461 471.581 894.461 469.671 894.461 467.126 893.968 465.043 892.982 463.424 892.112 462.078 891.03 461.318 889.736 461.145ZM843.736 461.145C843.305 461.087 842.85 461.094 842.371 461.167 833.033 462.613 827.001 468.457 824.275 478.697 823.637 481.127 823.318 483.499 823.318 485.814 823.318 488.764 823.84 491.135 824.884 492.929 825.986 494.896 827.523 495.88 829.495 495.88 829.901 495.88 830.307 495.851 830.713 495.793 835.469 494.926 839.355 492.062 842.371 487.202 843.763 484.945 845.503 480.895 847.591 475.052 848.171 473.374 848.461 471.581 848.461 469.671 848.461 467.126 847.968 465.043 846.982 463.424 846.112 462.078 845.03 461.318 843.736 461.145ZM809.209 458.883C810.521 458.811 811.866 458.818 813.243 458.905L813.243 461.515C808.255 461.167 803.876 461.877 800.106 463.646 796.336 465.415 793.61 468.127 791.928 471.781 791.696 472.361 791.58 472.854 791.58 473.26 791.58 474.304 792.537 474.826 794.451 474.826 795.553 474.826 797.946 474.536 801.629 473.956 805.312 473.376 808.081 473.086 809.937 473.086 814.925 473.086 817.419 474.884 817.419 478.48 817.419 479.408 817.274 480.452 816.984 481.612 815.012 489.094 805.993 494.836 789.927 498.838L789.927 496.141C796.574 494.459 801.256 493.009 803.972 491.791 809.753 489.123 813.249 485.73 814.463 481.612 814.752 480.684 814.896 479.872 814.896 479.176 814.896 476.682 813.104 475.435 809.52 475.435 807.96 475.435 805.286 475.754 801.5 476.392 797.714 477.03 795.069 477.349 793.565 477.349 790.328 477.349 788.709 476.247 788.709 474.043 788.709 473.405 788.854 472.651 789.144 471.781 790.478 467.431 793.523 464.067 798.279 461.689 801.629 460.036 805.272 459.101 809.209 458.883ZM889.937 458.519C891.764 458.747 893.33 459.775 894.635 461.602 896.201 463.864 896.984 466.706 896.984 470.128 896.984 472.158 896.665 474.072 896.027 475.87 893.823 482.076 891.88 486.513 890.198 489.181 886.776 494.459 882.426 497.562 877.148 498.49 876.626 498.606 876.133 498.664 875.669 498.664 872.885 498.664 870.681 497.33 869.057 494.662 867.549 492.168 866.795 488.978 866.795 485.092 866.795 482.772 867.085 480.423 867.665 478.045 870.565 466.677 877.351 460.181 888.023 458.557 888.69 458.455 889.328 458.443 889.937 458.519ZM843.937 458.519C845.764 458.747 847.33 459.775 848.635 461.602 850.201 463.864 850.984 466.706 850.984 470.128 850.984 472.158 850.665 474.072 850.027 475.87 847.823 482.076 845.88 486.513 844.198 489.181 840.776 494.459 836.426 497.562 831.148 498.49 830.626 498.606 830.133 498.664 829.669 498.664 826.885 498.664 824.681 497.33 823.057 494.662 821.549 492.168 820.795 488.978 820.795 485.092 820.795 482.772 821.085 480.423 821.665 478.045 824.565 466.677 831.351 460.181 842.023 458.557 842.69 458.455 843.328 458.443 843.937 458.519ZM963.969 458.035 966.492 458.035 966.492 488.155C966.492 491.047 966.522 492.639 966.581 492.929 966.815 494.722 967.634 495.619 969.04 495.619 969.684 495.619 970.474 495.416 971.411 495.011 973.812 493.97 976.477 491.916 979.404 488.849 981.746 486.419 983.533 484.191 984.762 482.165L984.762 458.035 987.285 458.035 987.285 480.655 988.677 480.655C988.271 481.293 987.807 482.047 987.285 482.917L987.285 498.403 984.762 498.403 984.762 486.832C980.452 492.4 976.317 495.967 972.357 497.533 970.958 498.113 969.735 498.403 968.688 498.403 966.591 498.403 965.193 497.185 964.494 494.749 964.144 493.473 963.969 491.298 963.969 488.224ZM955.594 458.035 958.117 458.035 958.117 510.572 962.788 506.562 964.642 508.461 957.16 515.02 955.594 514.15 955.594 475.609C953.035 481.931 949.255 487.412 944.253 492.052 939.252 496.692 934.831 499.012 930.992 499.012 927.213 499.012 924.974 496.634 924.276 491.878 924.043 490.37 923.926 488.862 923.926 487.354 923.926 479.06 927.125 472.216 933.522 466.822 939.164 462.066 945.561 459.688 952.715 459.688 953.704 459.688 954.664 459.688 955.594 459.688ZM1019.33 457.774C1023.56 457.774 1025.68 459.304 1025.68 462.363 1025.68 463.345 1025.48 464.442 1025.07 465.654 1023.97 468.772 1021.13 471.427 1016.55 473.62 1012.72 475.41 1009.41 476.305 1006.63 476.305 1005.82 476.305 1005.29 476.189 1005.06 475.957L1007.07 472.738C1007.07 473.26 1007.57 473.521 1008.56 473.521 1010.66 473.521 1013.22 472.714 1016.25 471.1 1019.75 469.256 1021.91 467.152 1022.72 464.79 1023.01 463.925 1023.16 463.176 1023.16 462.541 1023.16 460.755 1022.02 459.862 1019.74 459.862 1017.47 459.862 1014.43 460.641 1010.64 462.2 1008.13 463.181 1005.44 465.46 1002.58 469.039 999.022 473.483 996.862 478.216 996.103 483.238 995.928 484.391 995.84 485.459 995.84 486.44 995.84 492.327 998.313 495.271 1003.26 495.271 1008.84 495.271 1015.1 491.733 1022.02 484.657L1023.94 486.484C1016.46 494.198 1009.47 498.055 1002.97 498.055 1000.02 498.055 997.667 497.086 995.927 495.147 994.187 493.208 993.317 490.386 993.317 486.682 993.317 485.525 993.404 484.281 993.578 482.95 994.39 477.335 996.797 472.127 1000.8 467.324 1003.99 463.446 1006.98 460.928 1009.76 459.771 1013.07 458.44 1016.26 457.774 1019.33 457.774ZM1096.11 457.339C1098.43 457.339 1100.52 458.267 1102.38 460.123 1104.23 461.979 1105.16 464.096 1105.16 466.474L1105.16 470.737C1105.16 470.795 1105.26 470.969 1105.46 471.259 1105.67 471.549 1105.77 471.781 1105.77 471.955L1105.16 473.173 1105.16 482.221 1106.03 482.395C1105.62 483.613 1105.33 484.367 1105.16 484.657L1105.16 498.403 1102.46 498.403 1102.46 487.528C1099.33 490.159 1095.45 492.556 1090.81 494.719 1085.47 497.175 1081.03 498.403 1077.49 498.403 1072.33 498.403 1069.98 495.706 1070.45 490.312 1070.91 485.15 1075.55 480.539 1084.37 476.479 1090.81 473.521 1096.84 471.665 1102.46 470.911L1102.46 466.561C1102.46 464.879 1101.83 463.385 1100.55 462.08 1099.27 460.775 1097.82 460.123 1096.2 460.123 1094.69 460.123 1091.47 460.924 1086.54 462.525 1081.32 464.184 1078.57 465.472 1078.28 466.387L1075.49 466.387C1075.55 464.937 1077.84 463.255 1082.37 461.341 1086.31 459.659 1090.37 458.383 1094.55 457.513 1095.07 457.397 1095.59 457.339 1096.11 457.339ZM855.318 428.542 857.841 428.542 857.841 497.968 855.318 497.968ZM1062.68 428.194 1065.2 428.194 1065.2 497.968 1062.68 497.968 1062.68 475.348C1060.06 481.438 1056.08 486.716 1050.73 491.182 1045.67 495.3 1041.13 497.359 1037.12 497.359 1033.75 497.359 1031.83 495.648 1031.36 492.226 1031.13 490.718 1031.01 489.239 1031.01 487.789 1031.01 479.379 1034.21 472.448 1040.61 466.996 1046.31 462.124 1052.74 459.688 1059.89 459.688 1060.82 459.688 1061.75 459.688 1062.68 459.688Z" stroke="#000000" stroke-linejoin="round" stroke-miterlimit="10" fill-rule="evenodd"/><text fill="#000000" fill-opacity="0" font-family="Arial,Arial_MSFontService,sans-serif" font-size="86.826" x="788.709" y="504.167">solo queda</text><path d="M968.63 577.434C963.12 578.308 957.61 579.938 952.1 582.325 944.154 585.877 939.862 589.981 939.224 594.638 938.702 598.365 940.326 600.228 944.096 600.228 947.692 600.228 952.332 598.743 958.016 595.773 963.352 592.92 966.89 590.271 968.63 587.826ZM781.903 565.145C781.472 565.087 781.017 565.095 780.538 565.167 771.2 566.613 765.168 572.457 762.442 582.698 761.804 585.127 761.485 587.499 761.485 589.814 761.485 592.764 762.007 595.135 763.051 596.929 764.153 598.896 765.69 599.88 767.662 599.88 768.068 599.88 768.474 599.851 768.88 599.793 773.636 598.926 777.522 596.062 780.538 591.202 781.93 588.945 783.67 584.895 785.758 579.052 786.338 577.374 786.628 575.581 786.628 573.671 786.628 571.126 786.135 569.043 785.149 567.424 784.279 566.078 783.197 565.318 781.903 565.145ZM749.235 563.427C751.323 563.427 753.15 563.949 754.716 564.993L752.715 566.994C751.439 566.066 749.989 565.602 748.365 565.602 744.305 565.602 740.187 567.937 736.011 572.606 731.835 577.275 729.399 582.306 728.703 587.7 728.587 588.512 728.529 589.324 728.529 590.136 728.529 596.11 731.429 599.097 737.229 599.097 742.739 599.097 747.872 596.777 752.628 592.137L754.455 594.051C749.293 599.155 743.551 601.707 737.229 601.707 733.865 601.707 731.197 600.808 729.225 599.01 727.079 596.98 726.006 594.051 726.006 590.223 726.006 589.295 726.064 588.338 726.18 587.352 726.934 581.378 729.762 575.897 734.663 570.909 739.564 565.921 744.421 563.427 749.235 563.427ZM855.009 563.253 857.532 563.253 857.532 602.403 855.009 602.403ZM782.104 562.519C783.931 562.747 785.497 563.775 786.802 565.602 788.368 567.864 789.151 570.706 789.151 574.128 789.151 576.158 788.832 578.072 788.194 579.87 785.99 586.076 784.047 590.513 782.365 593.181 778.943 598.459 774.593 601.562 769.315 602.49 768.793 602.606 768.3 602.664 767.836 602.664 765.052 602.664 762.848 601.33 761.224 598.662 759.716 596.168 758.962 592.978 758.962 589.092 758.962 586.772 759.252 584.423 759.832 582.045 762.732 570.677 769.518 564.181 780.19 562.557 780.857 562.456 781.495 562.443 782.104 562.519ZM977.876 562.47 980.399 562.47 980.399 572.475C985.234 565.805 990.797 562.47 997.087 562.47 998.251 562.47 999.533 562.593 1000.93 562.838L1000.93 565.689C999.883 565.399 998.863 565.254 997.872 565.254 991 565.254 985.175 569.566 980.399 578.191L980.399 602.403 977.876 602.403 977.876 578.478 976.658 578.478C976.948 577.956 977.354 577.26 977.876 576.39ZM865.876 562.47 868.399 562.47 868.399 572.475C873.234 565.805 878.797 562.47 885.087 562.47 886.251 562.47 887.533 562.593 888.931 562.838L888.931 565.689C887.883 565.399 886.863 565.254 885.872 565.254 879 565.254 873.175 569.566 868.399 578.191L868.399 602.403 865.876 602.403 865.876 578.478 864.658 578.478C864.948 577.956 865.354 577.26 865.876 576.39ZM791.267 562.035 793.79 562.035 793.79 578.304C799.556 569.72 804.564 564.587 808.815 562.905 809.456 562.673 810.038 562.557 810.562 562.557 812.775 562.557 814.202 564.819 814.843 569.343 815.134 571.315 815.279 575.259 815.279 581.175L815.279 602.403 812.756 602.403 812.756 581.175C812.756 576.361 812.668 573.171 812.492 571.605 812.083 568.067 811.146 566.298 809.683 566.298 809.39 566.298 809.068 566.385 808.717 566.559 804.093 568.531 799.117 573.954 793.79 582.828L793.79 602.403 791.267 602.403 791.267 585.003 789.701 585.003C789.875 584.655 790.397 583.785 791.267 582.393ZM926.719 561.426C929.097 561.426 930.547 563.659 931.069 568.125 931.243 569.459 931.33 573.374 931.33 579.87L931.33 602.838 928.807 602.838 928.807 579.87C928.807 573.896 928.778 570.503 928.72 569.691 928.428 565.921 927.582 564.181 926.182 564.471 922.39 565.167 918.132 569.633 913.408 577.869L913.408 602.403 910.885 602.403 910.885 580.131 909.319 580.131C909.551 579.783 910.073 578.942 910.885 577.608 910.827 573.954 910.681 571.431 910.447 570.039 910.04 567.661 909.223 566.646 907.998 566.994 905.898 567.574 903.506 569.546 900.823 572.91 898.49 575.752 896.711 578.536 895.486 581.262L895.486 602.403 892.963 602.403 892.963 584.829 891.397 584.829C891.571 584.365 892.093 583.234 892.963 581.436L892.963 562.035 895.486 562.035 895.486 576.564C899.604 569.488 903.548 565.196 907.318 563.688 907.898 563.456 908.449 563.34 908.971 563.34 911.639 563.34 913.118 566.791 913.408 573.693 917.004 567.023 920.948 563.021 925.24 561.687 925.762 561.513 926.255 561.426 926.719 561.426ZM962.279 561.339C964.599 561.339 966.687 562.267 968.543 564.123 970.399 565.979 971.327 568.096 971.327 570.474L971.327 574.737C971.327 574.795 971.429 574.969 971.632 575.259 971.835 575.549 971.936 575.781 971.936 575.955L971.327 577.173 971.327 586.221 972.197 586.395C971.791 587.613 971.501 588.367 971.327 588.657L971.327 602.403 968.63 602.403 968.63 591.528C965.498 594.159 961.612 596.556 956.972 598.719 951.636 601.175 947.199 602.403 943.661 602.403 938.499 602.403 936.15 599.706 936.614 594.312 937.078 589.15 941.718 584.539 950.534 580.479 956.972 577.521 963.004 575.665 968.63 574.911L968.63 570.561C968.63 568.879 967.992 567.385 966.716 566.081 965.44 564.776 963.99 564.123 962.366 564.123 960.858 564.123 957.639 564.924 952.709 566.525 947.489 568.184 944.734 569.472 944.444 570.387L941.66 570.387C941.718 568.937 944.009 567.255 948.533 565.341 952.477 563.659 956.537 562.383 960.713 561.513 961.235 561.397 961.757 561.339 962.279 561.339ZM855.009 552.639 857.532 552.639 857.532 559.164 855.009 559.164ZM839.972 533.586C842.814 533.586 845.25 534.514 847.28 536.37 849.658 538.516 851.224 541.619 851.978 545.679L849.281 545.679C848.701 542.489 847.512 540.053 845.714 538.371 844.09 536.863 842.176 536.109 839.972 536.109 837.362 536.109 835.187 537.066 833.447 538.98 831.359 541.242 830.315 543.591 830.315 546.027 830.315 546.375 830.315 546.926 830.315 547.68 830.315 548.492 830.315 549.13 830.315 549.594L830.315 560.643 839.711 560.121 839.711 562.731 830.315 563.427 830.315 601.968 827.792 601.968 827.792 563.427 820.658 563.775 820.658 561.165 827.792 560.817 827.792 549.594C827.792 545.882 827.821 543.794 827.879 543.33 828.285 541.358 829.503 539.299 831.533 537.153 833.795 534.775 836.608 533.586 839.972 533.586Z" stroke="#000000" stroke-linejoin="round" stroke-miterlimit="10" fill-rule="evenodd"/><text fill="#000000" fill-opacity="0" font-family="Arial,Arial_MSFontService,sans-serif" font-size="69.252" x="726.006" y="594.182">confirmar</text><path d="M1162.74 565.145C1162.3 565.087 1161.85 565.095 1161.37 565.167 1152.03 566.613 1146 572.457 1143.28 582.698 1142.64 585.127 1142.32 587.499 1142.32 589.814 1142.32 592.764 1142.84 595.135 1143.88 596.929 1144.99 598.896 1146.52 599.88 1148.5 599.88 1148.9 599.88 1149.31 599.851 1149.71 599.793 1154.47 598.926 1158.36 596.062 1161.37 591.202 1162.76 588.945 1164.5 584.895 1166.59 579.052 1167.17 577.374 1167.46 575.581 1167.46 573.671 1167.46 571.126 1166.97 569.043 1165.98 567.424 1165.11 566.078 1164.03 565.318 1162.74 565.145ZM1130.84 563.253 1133.37 563.253 1133.37 602.403 1130.84 602.403ZM1095.86 562.795 1107.74 596.883 1120.08 562.821 1122.85 562.818 1108.67 601.968 1106.76 601.968 1093.01 562.818ZM1162.94 562.519C1164.76 562.747 1166.33 563.775 1167.64 565.602 1169.2 567.864 1169.98 570.706 1169.98 574.128 1169.98 576.158 1169.67 578.072 1169.03 579.87 1166.82 586.076 1164.88 590.513 1163.2 593.181 1159.78 598.459 1155.43 601.562 1150.15 602.49 1149.63 602.606 1149.13 602.664 1148.67 602.664 1145.89 602.664 1143.68 601.33 1142.06 598.662 1140.55 596.168 1139.8 592.978 1139.8 589.092 1139.8 586.772 1140.09 584.423 1140.67 582.045 1143.57 570.677 1150.35 564.181 1161.02 562.557 1161.69 562.456 1162.33 562.443 1162.94 562.519ZM1065.1 562.035 1067.62 562.035 1067.62 578.304C1073.39 569.72 1078.4 564.587 1082.65 562.905 1083.29 562.673 1083.87 562.557 1084.4 562.557 1086.61 562.557 1088.04 564.819 1088.68 569.343 1088.97 571.315 1089.11 575.259 1089.11 581.175L1089.11 602.403 1086.59 602.403 1086.59 581.175C1086.59 576.361 1086.5 573.171 1086.33 571.605 1085.92 568.067 1084.98 566.298 1083.52 566.298 1083.22 566.298 1082.9 566.385 1082.55 566.559 1077.93 568.531 1072.95 573.954 1067.62 582.828L1067.62 602.403 1065.1 602.403 1065.1 585.003 1063.53 585.003C1063.71 584.655 1064.23 583.785 1065.1 582.393ZM1053.33 561.774C1057.56 561.774 1059.68 563.304 1059.68 566.363 1059.68 567.345 1059.48 568.442 1059.07 569.654 1057.97 572.772 1055.13 575.427 1050.55 577.62 1046.72 579.41 1043.41 580.305 1040.63 580.305 1039.82 580.305 1039.29 580.189 1039.06 579.957L1041.07 576.738C1041.07 577.26 1041.57 577.521 1042.56 577.521 1044.66 577.521 1047.22 576.714 1050.25 575.1 1053.75 573.256 1055.91 571.152 1056.72 568.79 1057.01 567.925 1057.16 567.176 1057.16 566.541 1057.16 564.755 1056.02 563.862 1053.74 563.862 1051.47 563.862 1048.43 564.641 1044.64 566.2 1042.13 567.181 1039.44 569.46 1036.58 573.039 1033.02 577.483 1030.86 582.216 1030.1 587.238 1029.93 588.391 1029.84 589.459 1029.84 590.44 1029.84 596.328 1032.31 599.271 1037.26 599.271 1042.84 599.271 1049.1 595.733 1056.02 588.657L1057.94 590.484C1050.46 598.198 1043.47 602.055 1036.97 602.055 1034.02 602.055 1031.67 601.086 1029.93 599.147 1028.19 597.208 1027.32 594.386 1027.32 590.682 1027.32 589.525 1027.4 588.281 1027.58 586.95 1028.39 581.335 1030.8 576.127 1034.8 571.324 1037.99 567.446 1040.98 564.928 1043.76 563.771 1047.07 562.44 1050.26 561.774 1053.33 561.774ZM1130.84 552.639 1133.37 552.639 1133.37 559.164 1130.84 559.164Z" stroke="#000000" stroke-linejoin="round" stroke-miterlimit="10" fill-rule="evenodd"/><text fill="#000000" fill-opacity="0" font-family="Arial,Arial_MSFontService,sans-serif" font-size="50.025" x="1027.32" y="596.411">envio</text><g clip-path="url(#clip1)"><g clip-path="url(#clip2)"><g clip-path="url(#clip3)"><path d="M336.385 428.23C336.385 442.207 325.054 453.537 311.078 453.537 297.101 453.537 285.77 442.207 285.77 428.23 285.77 414.253 297.101 402.922 311.078 402.922 325.054 402.922 336.385 414.253 336.385 428.23Z" stroke="#7F7F7F" stroke-width="19.875" stroke-miterlimit="10" fill="none"/><path d="M488.23 428.23C488.23 442.207 476.899 453.537 462.922 453.537 448.946 453.537 437.615 442.207 437.615 428.23 437.615 414.253 448.946 402.922 462.922 402.922 476.899 402.922 488.23 414.253 488.23 428.23Z" stroke="#7F7F7F" stroke-width="19.875" stroke-miterlimit="10" fill="none"/><path d="M488.23 428.23 526.125 428.23 526.125 352.307 506.25 270.158C503.389 258.669 492.909 250.727 481.075 251.077L437.615 251.077 437.615 428.23" stroke="#7F7F7F" stroke-width="19.875" stroke-miterlimit="10" fill="none"/><path d="M336.385 428.23 437.615 428.23 437.615 364.895 247.875 364.895 247.875 428.23 285.77 428.23" stroke="#7F7F7F" stroke-width="19.875" stroke-miterlimit="10" fill="none"/><path d="M247.875 200.462 437.615 200.462 437.615 364.895 247.875 364.895Z" stroke="#7F7F7F" stroke-width="19.875" stroke-miterlimit="10" fill="none"/><path d="M437.615 327 462.922 327 488.23 352.307 526.125 352.307" stroke="#7F7F7F" stroke-width="19.875" stroke-miterlimit="10" fill="none"/></g></g></g></g></svg>