<svg width="1280" height="720" xmlns="http://www.w3.org/2000/svg" xmlns:xlink="http://www.w3.org/1999/xlink" overflow="hidden"><defs><clipPath id="clip0"><rect x="0" y="0" width="1280" height="720"/></clipPath><clipPath id="clip1"><rect x="166" y="332" width="152" height="152"/></clipPath><clipPath id="clip2"><rect x="166" y="332" width="152" height="152"/></clipPath><clipPath id="clip3"><rect x="166" y="332" width="152" height="152"/></clipPath><clipPath id="clip4"><rect x="385" y="112" width="189" height="189"/></clipPath><clipPath id="clip5"><rect x="385" y="112" width="189" height="189"/></clipPath><clipPath id="clip6"><rect x="385" y="112" width="189" height="189"/></clipPath><clipPath id="clip7"><rect x="196" y="82" width="189" height="189"/></clipPath><clipPath id="clip8"><rect x="196" y="82" width="189" height="189"/></clipPath><clipPath id="clip9"><rect x="196" y="82" width="189" height="189"/></clipPath><clipPath id="clip10"><path d="M332.136 404.006 455.682 288.682 571.006 412.229 447.459 527.552Z" fill-rule="evenodd" clip-rule="evenodd"/></clipPath><clipPath id="clip11"><path d="M332.136 404.006 455.682 288.682 571.006 412.229 447.459 527.552Z" fill-rule="evenodd" clip-rule="evenodd"/></clipPath><clipPath id="clip12"><path d="M332.136 404.006 455.682 288.682 571.006 412.229 447.459 527.552Z" fill-rule="evenodd" clip-rule="evenodd"/></clipPath></defs><g clip-path="url(#clip0)"><rect x="0" y="0" width="1280" height="720" fill="#FFFFFF"/><path d="M83 332C83 176.808 218.21 51 385 51 551.79 51 687 176.808 687 332 687 487.192 551.79 613 385 613 218.21 613 83 487.192 83 332Z" stroke="#000000" stroke-width="4" stroke-miterlimit="8" fill="#FFFFFF" fill-rule="evenodd"/><g clip-path="url(#clip1)"><g clip-path="url(#clip2)"><g clip-path="url(#clip3)"><path d="M223.887 364.237 223.887 359.613C223.887 349.61 231.996 341.5 242 341.5 251.99 341.535 260.078 349.624 260.113 359.613L260.113 364.237" stroke="#00FFFF" stroke-width="9.50005" stroke-miterlimit="10" fill="none"/><path d="M223.887 451.763 223.887 456.387C223.887 466.39 231.996 474.5 242 474.5 252.004 474.5 260.113 466.39 260.113 456.387L260.113 451.763" stroke="#00FFFF" stroke-width="9.50005" stroke-miterlimit="10" fill="none"/><path d="M285.763 426.113 290.387 426.113C300.39 426.113 308.5 418.004 308.5 408 308.5 397.996 300.39 389.887 290.387 389.887L285.763 389.887" stroke="#00FFFF" stroke-width="9.50005" stroke-miterlimit="10" fill="none"/><path d="M198.237 426.113 193.613 426.113C183.61 426.113 175.5 418.004 175.5 408 175.5 397.996 183.61 389.887 193.613 389.887L198.237 389.887" stroke="#00FFFF" stroke-width="9.50005" stroke-miterlimit="10" fill="none"/><path d="M223.887 364.237 223.887 359.613C223.887 349.61 231.996 341.5 242 341.5 251.99 341.535 260.078 349.624 260.113 359.613L260.113 364.237" stroke="#00FFFF" stroke-width="9.50005" stroke-miterlimit="10" fill="none"/><path d="M223.887 451.763 223.887 456.387C223.887 466.39 231.996 474.5 242 474.5 252.004 474.5 260.113 466.39 260.113 456.387L260.113 451.763" stroke="#00FFFF" stroke-width="9.50005" stroke-miterlimit="10" fill="none"/><path d="M285.763 426.113 290.387 426.113C300.39 426.113 308.5 418.004 308.5 408 308.5 397.996 300.39 389.887 290.387 389.887L285.763 389.887" stroke="#00FFFF" stroke-width="9.50005" stroke-miterlimit="10" fill="none"/><path d="M198.237 426.113 193.613 426.113C183.61 426.113 175.5 418.004 175.5 408 175.5 397.996 183.61 389.887 193.613 389.887L198.237 389.887" stroke="#00FFFF" stroke-width="9.50005" stroke-miterlimit="10" fill="none"/><path d="M260.113 364.237 263.407 360.943C270.488 353.877 281.957 353.89 289.022 360.971 292.373 364.329 294.273 368.867 294.313 373.61 294.316 378.364 292.425 382.922 289.057 386.277L285.763 389.57" stroke="#00FFFF" stroke-width="9.50005" stroke-miterlimit="10" fill="none"/><path d="M198.237 426.113 194.943 429.407C188.996 437.451 190.695 448.792 198.739 454.74 205.139 459.472 213.877 459.472 220.277 454.74L223.57 451.447" stroke="#00FFFF" stroke-width="9.50005" stroke-miterlimit="10" fill="none"/><path d="M260.113 451.763 263.407 455.057C266.761 458.425 271.32 460.316 276.073 460.313 286.077 460.227 294.116 452.048 294.031 442.045 293.99 437.302 292.09 432.765 288.74 429.407L285.447 426.113" stroke="#00FFFF" stroke-width="9.50005" stroke-miterlimit="10" fill="none"/><path d="M198.237 389.887 194.943 386.593C188.996 378.55 190.695 367.207 198.739 361.26 205.139 356.528 213.877 356.528 220.277 361.26L223.57 364.553" stroke="#00FFFF" stroke-width="9.50005" stroke-miterlimit="10" fill="none"/><path d="M260.113 364.237 263.407 360.943C270.488 353.877 281.957 353.89 289.022 360.971 292.373 364.329 294.273 368.867 294.313 373.61 294.316 378.364 292.425 382.922 289.057 386.277L285.763 389.57" stroke="#00FFFF" stroke-width="9.50005" stroke-miterlimit="10" fill="none"/><path d="M198.237 426.113 194.943 429.407C188.996 437.451 190.695 448.792 198.739 454.74 205.139 459.472 213.877 459.472 220.277 454.74L223.57 451.447" stroke="#00FFFF" stroke-width="9.50005" stroke-miterlimit="10" fill="none"/><path d="M260.113 451.763 263.407 455.057C266.761 458.425 271.32 460.316 276.073 460.313 286.077 460.227 294.116 452.048 294.031 442.045 293.99 437.302 292.09 432.765 288.74 429.407L285.447 426.113" stroke="#00FFFF" stroke-width="9.50005" stroke-miterlimit="10" fill="none"/><path d="M198.237 389.887 194.943 386.593C188.996 378.55 190.695 367.207 198.739 361.26 205.139 356.528 213.877 356.528 220.277 361.26L223.57 364.553" stroke="#00FFFF" stroke-width="9.50005" stroke-miterlimit="10" fill="none"/><path d="M284.307 408C284.307 431.365 265.365 450.307 242 450.307 218.635 450.307 199.693 431.365 199.693 408 199.693 384.635 218.635 365.693 242 365.693 265.365 365.693 284.307 384.635 284.307 408Z" stroke="#00FFFF" stroke-width="9.50005" stroke-miterlimit="10" fill="none"/><path d="M229.903 371.71 229.903 444.29" stroke="#00FFFF" stroke-width="9.50005" stroke-miterlimit="10" fill="none"/><path d="M254.097 371.71 254.097 444.29" stroke="#00FFFF" stroke-width="9.50005" stroke-miterlimit="10" fill="none"/><path d="M278.29 395.903 205.71 395.903" stroke="#00FFFF" stroke-width="9.50005" stroke-miterlimit="10" fill="none"/><path d="M278.29 420.097 205.71 420.097" stroke="#00FFFF" stroke-width="9.50005" stroke-miterlimit="10" fill="none"/></g></g></g><g clip-path="url(#clip4)"><g clip-path="url(#clip5)"><g clip-path="url(#clip6)"><path d="M470.129 211.934C467.083 236.624 444.598 254.171 419.907 251.124 415.782 250.616 411.746 249.538 407.916 247.923 408.664 241.884 410.59 236.051 413.586 230.755 424.95 211.071 449.234 202.987 470.129 211.934Z" stroke="#00FFFF" stroke-width="11.8125" stroke-miterlimit="10" fill="none"/><path d="M533.523 161.534C539.554 161.529 545.526 162.734 551.084 165.077 550.336 171.116 548.409 176.949 545.414 182.245 534.049 201.929 509.766 210.013 488.871 201.066 491.586 178.477 510.771 161.491 533.523 161.534Z" stroke="#00FFFF" stroke-width="11.8125" stroke-miterlimit="10" fill="none"/><path d="M479.5 217.289C497.736 230.944 502.879 256.08 491.47 275.8 488.431 281.03 484.358 285.585 479.5 289.188 474.642 285.585 470.569 281.03 467.53 275.8 456.121 256.08 461.264 230.944 479.5 217.289Z" stroke="#00FFFF" stroke-width="11.8125" stroke-miterlimit="10" fill="none"/><path d="M545.414 230.755C548.409 236.051 550.336 241.884 551.084 247.923 528.162 257.591 501.742 246.847 492.073 223.925 490.458 220.095 489.38 216.059 488.871 211.934 509.766 202.987 534.049 211.071 545.414 230.755Z" stroke="#00FFFF" stroke-width="11.8125" stroke-miterlimit="10" fill="none"/><path d="M425.478 161.534C448.176 161.481 467.341 178.382 470.129 200.909 449.273 209.882 425.002 201.87 413.586 182.245 410.59 176.949 408.664 171.116 407.916 165.077 413.474 162.734 419.446 161.529 425.478 161.534Z" stroke="#00FFFF" stroke-width="11.8125" stroke-miterlimit="10" fill="none"/><path d="M479.5 123.812C484.358 127.415 488.431 131.97 491.47 137.2 502.879 156.92 497.736 182.056 479.5 195.711 461.264 182.056 456.121 156.92 467.53 137.2 470.569 131.97 474.642 127.415 479.5 123.812Z" stroke="#00FFFF" stroke-width="11.8125" stroke-miterlimit="10" fill="none"/></g></g></g><g clip-path="url(#clip7)"><g clip-path="url(#clip8)"><g clip-path="url(#clip9)"><path d="M290.531 100.698 301.055 111.223C312.68 122.848 312.68 141.695 301.055 153.32L290.531 163.845 290.531 163.845 279.951 153.265C268.379 141.631 268.403 122.826 280.007 111.223L290.531 100.698 290.531 100.698Z" stroke="#00FFFF" stroke-width="11.8125" stroke-miterlimit="10" fill="none"/><path d="M335.151 147.126 335.151 162.01C335.11 178.267 322.033 191.484 305.777 191.699L290.894 191.699 290.894 191.699 290.894 176.894C290.892 160.606 303.981 147.342 320.267 147.126L335.151 147.126 335.151 147.126Z" stroke="#00FFFF" stroke-width="11.8125" stroke-miterlimit="10" fill="none"/><path d="M245.928 147.126 260.733 147.126C277.02 147.125 290.284 160.214 290.5 176.5L290.5 191.384 290.5 191.384 275.616 191.384C259.176 191.384 245.849 178.056 245.849 161.616L245.849 147.126 245.928 147.126Z" stroke="#00FFFF" stroke-width="11.8125" stroke-miterlimit="10" fill="none"/><path d="M335.073 191.777 335.073 206.661C335.073 223.101 321.745 236.429 305.305 236.429L290.5 236.429 290.5 236.429 290.5 221.545C290.5 205.136 303.78 191.821 320.189 191.777L335.073 191.777 335.073 191.777Z" stroke="#00FFFF" stroke-width="11.8125" stroke-miterlimit="10" fill="none"/><path d="M245.928 191.777 260.733 191.777C277.142 191.777 290.457 205.057 290.5 221.466L290.5 236.35 290.5 236.35 275.616 236.35C259.176 236.35 245.849 223.022 245.849 206.582L245.849 191.777 245.928 191.777Z" stroke="#00FFFF" stroke-width="11.8125" stroke-miterlimit="10" fill="none"/><path d="M290.5 266.117 290.5 162.01" stroke="#00FFFF" stroke-width="11.8125" stroke-miterlimit="10" fill="none"/></g></g></g><path d="M747.655 172.135 752.005 172.135 752.005 186.403 747.655 186.403ZM721.914 115.846 726.177 115.846 726.177 186.403 721.914 186.403Z" stroke="#000000" stroke-width="3" stroke-linejoin="round" stroke-miterlimit="10" fill-rule="evenodd"/><text fill="#000000" fill-opacity="0" font-family="Arial,Arial_MSFontService,sans-serif" font-size="70.557" x="721.914" y="177.583">1.</text><path d="M1145.1 161.908C1140.42 162.756 1135.55 164.271 1130.51 166.453 1122.74 169.918 1118.56 173.77 1117.98 178.008 1117.48 181.053 1118.78 182.575 1121.9 182.575 1125.28 182.575 1129.55 181.252 1134.69 178.607 1140.08 175.692 1143.55 173.148 1145.1 170.973ZM1075.27 149.819C1074.93 149.785 1074.57 149.803 1074.19 149.874 1065.39 151.237 1059.7 156.763 1057.12 166.451 1056.52 168.736 1056.22 170.989 1056.22 173.21 1056.22 175.987 1056.63 178.085 1057.46 179.504 1058.51 181.377 1059.83 182.314 1061.42 182.314 1061.78 182.314 1062.2 182.256 1062.66 182.141 1066.92 181.414 1070.48 178.757 1073.32 174.17 1074.65 172.028 1076.37 167.985 1078.49 162.043 1078.96 160.711 1079.19 159.149 1079.19 157.357 1079.19 155.031 1078.72 153.096 1077.78 151.554 1077.12 150.501 1076.29 149.923 1075.27 149.819ZM1026.74 146.557C1028.97 146.557 1031.06 147.293 1032.99 148.766L1030.25 151.667C1028.74 150.812 1027.29 150.385 1025.88 150.385 1022.15 150.385 1018.3 152.589 1014.35 156.998 1010.39 161.406 1008.08 166.168 1007.42 171.283 1007.31 172.018 1007.26 172.77 1007.26 173.539 1007.26 178.867 1009.82 181.531 1014.94 181.531 1020.1 181.531 1025.15 179.218 1030.09 174.591L1032.73 177.382C1027.32 182.932 1021.4 185.707 1014.97 185.707 1011.43 185.707 1008.74 184.827 1006.91 183.066 1004.36 180.751 1003.09 177.592 1003.09 173.588 1003.09 172.622 1003.15 171.597 1003.28 170.512 1004.02 164.624 1006.88 159.16 1011.84 154.119 1016.79 149.078 1021.76 146.557 1026.74 146.557ZM992.745 146.557C994.974 146.557 997.056 147.293 998.991 148.766L996.246 151.667C994.743 150.812 993.288 150.385 991.881 150.385 988.148 150.385 984.303 152.589 980.346 156.998 976.39 161.406 974.081 166.168 973.42 171.283 973.315 172.018 973.262 172.77 973.262 173.539 973.262 178.867 975.821 181.531 980.94 181.531 986.104 181.531 991.154 179.218 996.09 174.591L998.734 177.382C993.323 182.932 987.4 185.707 980.966 185.707 977.427 185.707 974.74 184.827 972.906 183.066 970.359 180.751 969.086 177.592 969.086 173.588 969.086 172.622 969.15 171.597 969.278 170.512 970.023 164.624 972.875 159.16 977.835 154.119 982.795 149.078 987.765 146.557 992.745 146.557ZM1042.92 146.383 1047.18 146.383 1047.18 186.403 1042.92 186.403ZM1075.7 145.618C1077.7 145.805 1079.35 146.794 1080.64 148.585 1082.46 151.248 1083.36 154.324 1083.36 157.815 1083.36 159.902 1083.03 161.879 1082.37 163.744 1080.18 169.901 1078.3 174.059 1076.71 176.219 1073.12 182.116 1068.57 185.541 1063.06 186.493 1062.62 186.607 1062.14 186.664 1061.61 186.664 1058.55 186.664 1056.14 185.22 1054.38 182.332 1052.82 179.751 1052.04 176.469 1052.04 172.487 1052.04 170.127 1052.33 167.763 1052.91 165.394 1055.83 153.917 1062.72 147.352 1073.58 145.699 1074.32 145.583 1075.03 145.556 1075.7 145.618ZM1154.96 145.6 1159.22 145.6 1159.22 155.303C1163.06 148.834 1168.21 145.6 1174.68 145.6 1175.87 145.6 1177.41 145.766 1179.32 146.098L1179.32 150.386C1177.61 150.095 1176.32 149.95 1175.45 149.95 1169.07 149.95 1163.66 153.966 1159.22 161.998L1159.22 186.403 1154.96 186.403 1154.96 162.932 1153.74 162.932C1154.11 161.572 1154.52 160.532 1154.96 159.814ZM1085.35 145.165 1089.61 145.165 1089.61 161.022C1094.25 152.79 1098.76 147.803 1103.14 146.062 1103.83 145.812 1104.48 145.687 1105.1 145.687 1107.77 145.687 1109.45 148.131 1110.14 153.019 1110.43 155.009 1110.58 158.91 1110.58 164.722L1110.58 186.403 1106.31 186.403 1106.31 164.714C1106.31 160.065 1106.23 156.973 1106.06 155.438 1105.72 152.475 1105.1 150.994 1104.19 150.994 1104.06 150.994 1103.89 151.042 1103.69 151.139 1099.3 153.03 1094.6 158.168 1089.61 166.555L1089.61 186.403 1085.35 186.403 1085.35 169.333 1083.78 169.333C1084.01 168.185 1084.54 166.975 1085.35 165.702ZM957.958 144.817C962.692 144.817 965.059 146.579 965.059 150.104 965.059 151.149 964.815 152.398 964.328 153.853 963.221 156.984 960.309 159.679 955.592 161.937 951.719 163.748 948.352 164.653 945.492 164.653 944.455 164.653 943.653 164.302 943.086 163.601L946.795 159.486C946.795 160.031 946.989 160.303 947.378 160.303 949.273 160.303 951.493 159.782 954.037 158.74 957.547 156.571 959.671 154.417 960.409 152.277 960.667 151.509 960.796 150.855 960.796 150.317 960.796 149.144 959.973 148.558 958.328 148.558 956.231 148.558 953.459 149.27 950.011 150.694 947.52 151.672 944.926 153.858 942.228 157.251 938.843 161.5 936.79 166.015 936.07 170.797 935.908 171.871 935.827 172.875 935.827 173.81 935.827 179.073 937.959 181.705 942.222 181.705 947.433 181.705 953.55 178.196 960.573 171.178L963.346 173.848C955.668 181.986 948.521 186.055 941.908 186.055 938.741 186.055 936.226 185.014 934.361 182.933 932.496 180.851 931.564 177.877 931.564 174.01 931.564 172.806 931.654 171.515 931.833 170.135 932.639 164.561 935.06 159.347 939.095 154.494 942.3 150.593 945.217 148.095 947.844 147 951.454 145.545 954.825 144.817 957.958 144.817ZM906.958 144.817C911.692 144.817 914.059 146.579 914.059 150.104 914.059 151.149 913.815 152.398 913.328 153.853 912.221 156.984 909.309 159.679 904.592 161.937 900.719 163.748 897.352 164.653 894.492 164.653 893.455 164.653 892.653 164.302 892.086 163.601L895.795 159.486C895.795 160.031 895.989 160.303 896.378 160.303 898.273 160.303 900.493 159.782 903.037 158.74 906.547 156.571 908.671 154.417 909.409 152.277 909.667 151.509 909.796 150.855 909.796 150.317 909.796 149.144 908.973 148.558 907.328 148.558 905.231 148.558 902.459 149.27 899.011 150.694 896.52 151.672 893.926 153.858 891.228 157.251 887.843 161.5 885.79 166.015 885.07 170.797 884.908 171.871 884.827 172.875 884.827 173.81 884.827 179.073 886.959 181.705 891.222 181.705 896.433 181.705 902.55 178.196 909.573 171.178L912.346 173.848C904.668 181.986 897.521 186.055 890.908 186.055 887.741 186.055 885.226 185.014 883.361 182.933 881.496 180.851 880.564 177.877 880.564 174.01 880.564 172.806 880.654 171.515 880.833 170.135 881.639 164.561 884.06 159.347 888.095 154.494 891.3 150.593 894.217 148.095 896.844 147 900.454 145.545 903.825 144.817 906.958 144.817ZM1139.72 144.469C1142.24 144.469 1144.5 145.461 1146.48 147.446 1148.46 149.431 1149.45 151.686 1149.45 154.213L1149.45 158.394C1149.45 158.3 1149.56 158.395 1149.77 158.68 1149.98 158.964 1150.08 159.335 1150.08 159.792L1149.45 160.987 1149.45 169.037 1150.34 169.256C1149.87 171.083 1149.58 172.095 1149.45 172.293L1149.45 186.403 1145.1 186.403 1145.1 175.735C1142.92 178.239 1139.69 180.395 1135.4 182.205 1129.73 185.004 1125.09 186.403 1121.48 186.403 1115.83 186.403 1113.24 183.445 1113.69 177.528 1114.18 172.17 1118.89 167.427 1127.85 163.298 1134.22 160.368 1139.97 158.559 1145.1 157.871L1145.1 154.27C1145.1 152.86 1144.56 151.599 1143.47 150.487 1142.39 149.375 1141.17 148.819 1139.83 148.819 1138.44 148.819 1135.36 149.595 1130.61 151.148 1125.78 152.689 1123.21 153.971 1122.88 154.995L1118.64 154.995C1118.71 152.664 1121.13 150.488 1125.9 148.467 1129.81 146.798 1133.84 145.53 1137.99 144.665 1138.58 144.534 1139.15 144.469 1139.72 144.469ZM1042.92 135.943 1047.18 135.943 1047.18 144.034 1042.92 144.034ZM869.431 117.238C870.144 117.238 871.259 117.29 872.776 117.393L872.776 121.501C871.341 121.501 870.197 121.501 869.342 121.501 863.318 121.501 857.997 123.126 853.379 126.377 848.169 130.343 844.681 135.38 842.915 141.488 842.828 141.791 842.784 142.107 842.784 142.435 842.784 143.617 844.258 144.208 847.205 144.208 848.548 144.208 851.11 144.034 854.89 143.686 858.67 143.338 861.57 143.164 863.588 143.164 873.441 143.164 878.367 146.814 878.367 154.114 878.367 155.333 878.146 156.961 877.704 158.998 876.26 166.87 871.253 173.041 862.681 177.513 857.887 181.084 850.316 184.396 839.969 187.447L839.969 183.369C849.167 180.473 856.159 177.774 860.944 175.274 868.112 170.707 872.356 165.012 873.675 158.189 873.845 156.68 873.93 155.51 873.93 154.679 873.93 149.786 870.267 147.34 862.94 147.34 861.164 147.34 858.399 147.499 854.643 147.818 850.887 148.137 848.248 148.297 846.726 148.297 841.14 148.297 838.347 146.586 838.347 143.165 838.347 142.272 838.518 141.412 838.86 140.587 841.267 133.194 845.193 127.608 850.637 123.827 856.31 119.434 862.575 117.238 869.431 117.238ZM919.478 116.194 923.741 116.194 923.741 185.968 919.478 185.968Z" stroke="#000000" stroke-width="3" stroke-linejoin="round" stroke-miterlimit="10" fill-rule="evenodd"/><text fill="#000000" fill-opacity="0" font-family="Arial,Arial_MSFontService,sans-serif" font-size="71.253" x="838.347" y="178.54">Seleccionar</text><path d="M887.512 254.385C881.016 254.385 875.419 256.537 870.721 260.841 865.501 265.725 862.891 272.18 862.891 280.205 862.891 281.369 862.949 282.59 863.065 283.868 863.297 286.137 864.486 287.271 866.632 287.271 870.46 287.271 875.013 284.567 880.291 279.158 886.091 273.285 889.745 266.917 891.253 260.055 891.427 258.659 891.804 256.944 892.384 254.908 890.818 254.559 889.194 254.385 887.512 254.385ZM852.57 253.145C852.138 253.087 851.683 253.094 851.205 253.167 841.867 254.613 835.835 260.457 833.109 270.697 832.471 273.127 832.152 275.499 832.152 277.814 832.152 280.764 832.674 283.135 833.718 284.929 834.82 286.896 836.357 287.88 838.329 287.88 838.735 287.88 839.141 287.851 839.547 287.793 844.303 286.926 848.189 284.062 851.205 279.202 852.597 276.945 854.337 272.895 856.425 267.052 857.005 265.374 857.295 263.581 857.295 261.671 857.295 259.126 856.802 257.043 855.816 255.424 854.946 254.078 853.864 253.318 852.57 253.145ZM888.208 251.601C889.716 251.601 891.166 251.746 892.558 252.036L893.863 252.036 893.863 306.585 891.34 306.585 891.34 269.001C888.665 274.685 884.768 279.615 879.649 283.791 874.764 287.735 870.401 289.707 866.562 289.707 863.073 289.707 861.038 287.88 860.456 284.226 860.165 282.486 860.02 280.775 860.02 279.093 860.02 270.857 863.181 264.071 869.503 258.735 875.129 253.979 881.364 251.601 888.208 251.601ZM819.902 251.427C821.99 251.427 823.817 251.949 825.383 252.993L823.382 254.994C822.106 254.066 820.656 253.602 819.032 253.602 814.972 253.602 810.854 255.936 806.678 260.605 802.502 265.274 800.066 270.306 799.37 275.7 799.254 276.512 799.196 277.324 799.196 278.136 799.196 284.11 802.096 287.097 807.896 287.097 813.406 287.097 818.539 284.777 823.295 280.137L825.122 282.051C819.96 287.155 814.218 289.707 807.896 289.707 804.532 289.707 801.864 288.808 799.892 287.01 797.746 284.98 796.673 282.051 796.673 278.223 796.673 277.295 796.731 276.338 796.847 275.352 797.601 269.378 800.428 263.897 805.329 258.909 810.23 253.921 815.088 251.427 819.902 251.427ZM784.042 250.883C785.354 250.811 786.699 250.818 788.077 250.905L788.077 253.515C783.089 253.167 778.71 253.877 774.94 255.646 771.17 257.415 768.444 260.127 766.762 263.781 766.53 264.361 766.414 264.854 766.414 265.26 766.414 266.304 767.371 266.826 769.285 266.826 770.387 266.826 772.779 266.536 776.462 265.956 780.145 265.376 782.915 265.086 784.771 265.086 789.759 265.086 792.253 266.884 792.253 270.48 792.253 271.408 792.108 272.452 791.818 273.612 789.846 281.094 780.827 286.836 764.761 290.838L764.761 288.141C771.407 286.459 776.089 285.009 778.806 283.791 784.586 281.123 788.083 277.73 789.296 273.612 789.585 272.684 789.73 271.872 789.73 271.176 789.73 268.682 787.938 267.435 784.353 267.435 782.793 267.435 780.119 267.754 776.333 268.392 772.547 269.03 769.902 269.349 768.398 269.349 765.161 269.349 763.543 268.247 763.543 266.043 763.543 265.405 763.688 264.651 763.978 263.781 765.312 259.431 768.357 256.067 773.113 253.689 776.462 252.036 780.105 251.101 784.042 250.883ZM852.771 250.519C854.598 250.747 856.164 251.775 857.469 253.602 859.035 255.864 859.818 258.706 859.818 262.128 859.818 264.158 859.499 266.072 858.861 267.87 856.657 274.076 854.714 278.513 853.032 281.181 849.61 286.459 845.26 289.562 839.982 290.49 839.46 290.606 838.967 290.664 838.503 290.664 835.719 290.664 833.515 289.33 831.891 286.662 830.383 284.168 829.629 280.978 829.629 277.092 829.629 274.772 829.919 272.423 830.499 270.045 833.399 258.677 840.185 252.181 850.857 250.557 851.524 250.455 852.162 250.443 852.771 250.519ZM937.543 250.47 940.066 250.47 940.066 260.475C944.901 253.805 950.463 250.47 956.753 250.47 957.918 250.47 959.199 250.593 960.598 250.838L960.598 253.689C959.549 253.399 958.53 253.254 957.539 253.254 950.666 253.254 944.842 257.566 940.066 266.191L940.066 290.403 937.543 290.403 937.543 266.478 936.325 266.478C936.615 265.956 937.021 265.26 937.543 264.39ZM925.164 249.774C929.398 249.774 931.515 251.304 931.515 254.363 931.515 255.345 931.312 256.442 930.906 257.654 929.804 260.772 926.962 263.427 922.38 265.62 918.552 267.41 915.246 268.305 912.462 268.305 911.65 268.305 911.128 268.189 910.896 267.957L912.906 264.738C912.906 265.26 913.402 265.521 914.392 265.521 916.49 265.521 919.055 264.714 922.086 263.1 925.582 261.256 927.738 259.152 928.554 256.79 928.846 255.925 928.992 255.176 928.992 254.541 928.992 252.755 927.854 251.862 925.577 251.862 923.301 251.862 920.265 252.641 916.471 254.2 913.961 255.181 911.276 257.46 908.416 261.039 904.856 265.483 902.696 270.216 901.936 275.238 901.761 276.391 901.674 277.459 901.674 278.44 901.674 284.327 904.146 287.271 909.092 287.271 914.677 287.271 920.932 283.733 927.855 276.657L929.775 278.484C922.293 286.198 915.304 290.055 908.808 290.055 905.85 290.055 903.501 289.086 901.761 287.147 900.021 285.208 899.151 282.386 899.151 278.682 899.151 277.525 899.238 276.281 899.412 274.95 900.224 269.335 902.631 264.127 906.633 259.324 909.823 255.446 912.81 252.928 915.594 251.771 918.9 250.44 922.09 249.774 925.164 249.774ZM749.383 217.933 749.36 220.842 722.848 233.619 722.848 252.732 751.123 238.464 751.14 241.282 722.848 255.558 722.848 287.117 752.443 272.336 752.428 275.289 721.456 290.838 720.325 289.707 720.325 219.672 722.848 219.672 722.848 230.721Z" stroke="#000000" stroke-linejoin="round" stroke-miterlimit="10" fill-rule="evenodd"/><text fill="#000000" fill-opacity="0" font-family="Arial,Arial_MSFontService,sans-serif" font-size="88.6516" x="720.325" y="295.504">Escoger</text><path d="M1013.66 249.774C1017.9 249.774 1020.01 251.304 1020.01 254.363 1020.01 255.345 1019.81 256.442 1019.41 257.654 1018.3 260.772 1015.46 263.427 1010.88 265.62 1007.05 267.41 1003.75 268.305 1000.96 268.305 1000.15 268.305 999.628 268.189 999.396 267.957L1001.41 264.738C1001.41 265.26 1001.9 265.521 1002.89 265.521 1004.99 265.521 1007.55 264.714 1010.59 263.1 1014.08 261.256 1016.24 259.152 1017.05 256.79 1017.35 255.925 1017.49 255.176 1017.49 254.541 1017.49 252.755 1016.35 251.862 1014.08 251.862 1011.8 251.862 1008.77 252.641 1004.97 254.2 1002.46 255.181 999.776 257.46 996.916 261.039 993.356 265.483 991.196 270.216 990.436 275.238 990.261 276.391 990.174 277.459 990.174 278.44 990.174 284.327 992.646 287.271 997.592 287.271 1003.18 287.271 1009.43 283.733 1016.36 276.657L1018.27 278.484C1010.79 286.198 1003.8 290.055 997.308 290.055 994.35 290.055 992.001 289.086 990.261 287.147 988.521 285.208 987.651 282.386 987.651 278.682 987.651 277.525 987.738 276.281 987.912 274.95 988.724 269.335 991.131 264.127 995.133 259.324 998.323 255.446 1001.31 252.928 1004.09 251.771 1007.4 250.44 1010.59 249.774 1013.66 249.774ZM1026.65 220.542 1029.17 220.542 1029.17 289.968 1026.65 289.968Z" stroke="#000000" stroke-linejoin="round" stroke-miterlimit="10" fill-rule="evenodd"/><text fill="#000000" fill-opacity="0" font-family="Arial,Arial_MSFontService,sans-serif" font-size="69.513" x="987.651" y="281.366">el</text><path d="M1132.65 254.907C1128.97 254.907 1122.37 257.633 1112.86 263.085L1112.86 288.228C1117.99 286.372 1122.9 283.791 1127.57 280.485 1134.98 275.149 1138.81 269.523 1139.04 263.607 1139.28 257.807 1137.14 254.907 1132.65 254.907ZM1168.4 253.145C1167.97 253.087 1167.52 253.094 1167.04 253.167 1157.7 254.613 1151.67 260.457 1148.94 270.697 1148.3 273.127 1147.99 275.499 1147.99 277.814 1147.99 280.764 1148.51 283.135 1149.55 284.929 1150.65 286.896 1152.19 287.88 1154.16 287.88 1154.57 287.88 1154.97 287.851 1155.38 287.793 1160.14 286.926 1164.02 284.062 1167.04 279.202 1168.43 276.945 1170.17 272.895 1172.26 267.052 1172.84 265.374 1173.13 263.581 1173.13 261.671 1173.13 259.126 1172.64 257.043 1171.65 255.424 1170.78 254.078 1169.7 253.318 1168.4 253.145ZM1098.51 251.253 1101.03 251.253 1101.03 290.403 1098.51 290.403ZM1168.6 250.519C1170.43 250.747 1172 251.775 1173.3 253.602 1174.87 255.864 1175.65 258.706 1175.65 262.128 1175.65 264.158 1175.33 266.072 1174.69 267.87 1172.49 274.076 1170.55 278.513 1168.87 281.181 1165.44 286.459 1161.09 289.562 1155.82 290.49 1155.29 290.606 1154.8 290.664 1154.34 290.664 1151.55 290.664 1149.35 289.33 1147.72 286.662 1146.22 284.168 1145.46 280.978 1145.46 277.092 1145.46 274.772 1145.75 272.423 1146.33 270.045 1149.23 258.677 1156.02 252.181 1166.69 250.557 1167.36 250.455 1168 250.443 1168.6 250.519ZM1110.33 248.556 1112.86 248.556 1112.86 259.692C1121.58 254.82 1128.24 252.384 1132.84 252.384 1138.77 252.384 1141.68 256.125 1141.57 263.607 1141.45 270.567 1137.38 276.947 1129.35 282.747 1124.69 286.169 1119.2 289.069 1112.86 291.447L1112.86 308.847 1110.33 308.847 1110.33 263.781 1109.29 261.693C1109.29 261.693 1109.64 261.519 1110.33 261.171ZM1098.51 240.639 1101.03 240.639 1101.03 247.164 1098.51 247.164ZM1068.73 229.938 1071.25 229.938 1071.25 254.941 1084.04 249.253 1084.03 252.111 1071.25 257.797 1071.25 280.163C1071.25 283.053 1071.28 284.642 1071.34 284.931 1071.63 286.723 1072.47 287.619 1073.87 287.619 1074.51 287.619 1075.3 287.417 1076.23 287.014 1078.85 285.918 1081.53 283.583 1084.27 280.008 1086.42 277.241 1087.85 274.906 1088.55 273.003L1091.26 273.003C1090.45 275.497 1088.79 278.368 1086.3 281.616 1083.28 285.618 1080.24 288.257 1077.17 289.533 1075.77 290.113 1074.56 290.403 1073.51 290.403 1071.37 290.403 1069.94 289.182 1069.25 286.739 1068.9 285.461 1068.73 283.281 1068.73 280.2L1068.73 258.92 1059.59 262.986 1059.59 260.094 1068.73 256.064Z" stroke="#000000" stroke-linejoin="round" stroke-miterlimit="10" fill-rule="evenodd"/><text fill="#000000" fill-opacity="0" font-family="Arial,Arial_MSFontService,sans-serif" font-size="78.909" x="1059.59" y="298.983">tipo</text><path d="M752.627 358.472C745.995 358.472 740.178 360.722 735.176 365.221 729.59 370.182 726.798 376.614 726.798 384.518 726.798 385.441 726.827 386.364 726.885 387.287 727.06 389.479 728.252 390.575 730.463 390.575 734.535 390.575 739.306 387.863 744.774 382.44 750.824 376.499 754.431 370.038 755.595 363.059L755.595 358.645C754.606 358.53 753.617 358.472 752.627 358.472ZM790.244 353.774C794.478 353.774 796.595 355.304 796.595 358.363 796.595 359.345 796.392 360.442 795.986 361.654 794.884 364.772 792.042 367.427 787.46 369.62 783.632 371.41 780.326 372.305 777.542 372.305 776.73 372.305 776.208 372.189 775.976 371.957L777.986 368.738C777.986 369.26 778.482 369.521 779.472 369.521 781.57 369.521 784.135 368.714 787.166 367.1 790.662 365.256 792.818 363.152 793.634 360.79 793.926 359.925 794.072 359.176 794.072 358.541 794.072 356.755 792.934 355.862 790.657 355.862 788.381 355.862 785.345 356.641 781.551 358.2 779.041 359.181 776.356 361.46 773.496 365.039 769.936 369.483 767.776 374.216 767.016 379.238 766.841 380.391 766.754 381.459 766.754 382.44 766.754 388.327 769.227 391.271 774.172 391.271 779.757 391.271 786.012 387.733 792.935 380.657L794.855 382.484C787.373 390.198 780.384 394.055 773.888 394.055 770.93 394.055 768.581 393.086 766.841 391.147 765.101 389.208 764.231 386.386 764.231 382.682 764.231 381.525 764.318 380.281 764.492 378.95 765.304 373.335 767.711 368.127 771.713 363.324 774.903 359.446 777.89 356.928 780.674 355.771 783.98 354.44 787.17 353.774 790.244 353.774ZM755.595 324.194 758.118 324.194 758.118 393.968 755.595 393.968 755.595 371.348C752.978 377.438 748.994 382.716 743.643 387.182 738.584 391.3 734.047 393.359 730.033 393.359 726.66 393.359 724.741 391.648 724.276 388.226 724.043 386.718 723.927 385.239 723.927 383.789 723.927 375.379 727.125 368.448 733.523 362.996 739.223 358.124 745.65 355.688 752.803 355.688 753.733 355.688 754.664 355.688 755.595 355.688Z" stroke="#000000" stroke-linejoin="round" stroke-miterlimit="10" fill-rule="evenodd"/><text fill="#000000" fill-opacity="0" font-family="Arial,Arial_MSFontService,sans-serif" font-size="69.861" x="723.927" y="385.322">de</text><path d="M1035.38 369.434C1029.87 370.308 1024.36 371.938 1018.85 374.325 1010.9 377.877 1006.61 381.981 1005.97 386.638 1005.45 390.365 1007.07 392.228 1010.84 392.228 1014.44 392.228 1019.08 390.743 1024.76 387.773 1030.1 384.92 1033.64 382.271 1035.38 379.826ZM903.377 369.434C897.867 370.308 892.357 371.938 886.847 374.325 878.901 377.877 874.609 381.981 873.971 386.638 873.449 390.365 875.073 392.228 878.843 392.228 882.439 392.228 887.079 390.743 892.763 387.773 898.099 384.92 901.637 382.271 903.377 379.826ZM978.623 354.47 981.146 354.47 981.146 364.475C985.981 357.805 991.543 354.47 997.833 354.47 998.998 354.47 1000.28 354.593 1001.68 354.838L1001.68 357.689C1000.63 357.399 999.61 357.254 998.619 357.254 991.746 357.254 985.922 361.566 981.146 370.191L981.146 394.403 978.623 394.403 978.623 370.478 977.405 370.478C977.695 369.956 978.101 369.26 978.623 368.39ZM965.244 353.774C969.478 353.774 971.595 355.304 971.595 358.363 971.595 359.345 971.392 360.442 970.986 361.654 969.884 364.772 967.042 367.427 962.46 369.62 958.632 371.41 955.326 372.305 952.542 372.305 951.73 372.305 951.208 372.189 950.976 371.957L952.986 368.738C952.986 369.26 953.482 369.521 954.472 369.521 956.57 369.521 959.135 368.714 962.166 367.1 965.662 365.256 967.818 363.152 968.634 360.79 968.926 359.925 969.072 359.176 969.072 358.541 969.072 356.755 967.934 355.862 965.657 355.862 963.381 355.862 960.345 356.641 956.551 358.2 954.041 359.181 951.356 361.46 948.496 365.039 944.936 369.483 942.776 374.216 942.016 379.238 941.841 380.391 941.754 381.459 941.754 382.44 941.754 388.327 944.227 391.271 949.172 391.271 954.757 391.271 961.012 387.733 967.935 380.657L969.855 382.484C962.373 390.198 955.384 394.055 948.888 394.055 945.93 394.055 943.581 393.086 941.841 391.147 940.101 389.208 939.231 386.386 939.231 382.682 939.231 381.525 939.318 380.281 939.492 378.95 940.304 373.335 942.711 368.127 946.713 363.324 949.903 359.446 952.89 356.928 955.674 355.771 958.98 354.44 962.17 353.774 965.244 353.774ZM861.466 353.426C863.844 353.426 865.294 355.659 865.816 360.125 865.99 361.459 866.077 365.374 866.077 371.87L866.077 394.838 863.554 394.838 863.554 371.87C863.554 365.896 863.525 362.503 863.467 361.691 863.175 357.921 862.329 356.181 860.929 356.471 857.137 357.167 852.879 361.633 848.155 369.869L848.155 394.403 845.632 394.403 845.632 372.131 844.066 372.131C844.298 371.783 844.82 370.942 845.632 369.608 845.574 365.954 845.428 363.431 845.194 362.039 844.786 359.661 843.97 358.646 842.745 358.994 840.645 359.574 838.253 361.546 835.57 364.91 833.237 367.752 831.458 370.536 830.233 373.262L830.233 394.403 827.71 394.403 827.71 376.829 826.144 376.829C826.318 376.365 826.84 375.234 827.71 373.436L827.71 354.035 830.233 354.035 830.233 368.564C834.351 361.488 838.295 357.196 842.065 355.688 842.645 355.456 843.196 355.34 843.718 355.34 846.386 355.34 847.865 358.791 848.155 365.693 851.751 359.023 855.695 355.021 859.987 353.687 860.509 353.513 861.002 353.426 861.466 353.426ZM1029.03 353.339C1031.35 353.339 1033.43 354.267 1035.29 356.123 1037.15 357.979 1038.07 360.096 1038.07 362.474L1038.07 366.737C1038.07 366.795 1038.18 366.969 1038.38 367.259 1038.58 367.549 1038.68 367.781 1038.68 367.955L1038.07 369.173 1038.07 378.221 1038.94 378.395C1038.54 379.613 1038.25 380.367 1038.07 380.657L1038.07 394.403 1035.38 394.403 1035.38 383.528C1032.24 386.159 1028.36 388.556 1023.72 390.719 1018.38 393.175 1013.95 394.403 1010.41 394.403 1005.25 394.403 1002.9 391.706 1003.36 386.312 1003.82 381.15 1008.46 376.539 1017.28 372.479 1023.72 369.521 1029.75 367.665 1035.38 366.911L1035.38 362.561C1035.38 360.879 1034.74 359.385 1033.46 358.08 1032.19 356.775 1030.74 356.123 1029.11 356.123 1027.6 356.123 1024.39 356.924 1019.46 358.525 1014.24 360.184 1011.48 361.472 1011.19 362.387L1008.41 362.387C1008.46 360.937 1010.76 359.255 1015.28 357.341 1019.22 355.659 1023.28 354.383 1027.46 353.513 1027.98 353.397 1028.5 353.339 1029.03 353.339ZM897.026 353.339C899.346 353.339 901.434 354.267 903.29 356.123 905.146 357.979 906.074 360.096 906.074 362.474L906.074 366.737C906.074 366.795 906.175 366.969 906.378 367.259 906.581 367.549 906.683 367.781 906.683 367.955L906.074 369.173 906.074 378.221 906.944 378.395C906.538 379.613 906.248 380.367 906.074 380.657L906.074 394.403 903.377 394.403 903.377 383.528C900.245 386.159 896.359 388.556 891.719 390.719 886.383 393.175 881.946 394.403 878.408 394.403 873.246 394.403 870.897 391.706 871.361 386.312 871.825 381.15 876.465 376.539 885.281 372.479 891.719 369.521 897.751 367.665 903.377 366.911L903.377 362.561C903.377 360.879 902.739 359.385 901.463 358.08 900.187 356.775 898.737 356.123 897.113 356.123 895.605 356.123 892.386 356.924 887.456 358.525 882.236 360.184 879.481 361.472 879.191 362.387L876.407 362.387C876.465 360.937 878.756 359.255 883.28 357.341 887.224 355.659 891.284 354.383 895.46 353.513 895.982 353.397 896.504 353.339 897.026 353.339ZM916.973 333.938 919.496 333.938 919.496 358.941 932.285 353.253 932.279 356.111 919.496 361.797 919.496 384.163C919.496 387.053 919.525 388.642 919.583 388.931 919.875 390.723 920.719 391.619 922.117 391.619 922.757 391.619 923.544 391.417 924.477 391.014 927.098 389.918 929.778 387.583 932.516 384.008 934.671 381.241 936.098 378.906 936.797 377.003L939.506 377.003C938.694 379.497 937.041 382.368 934.547 385.616 931.531 389.618 928.486 392.257 925.412 393.533 924.02 394.113 922.802 394.403 921.758 394.403 919.612 394.403 918.191 393.182 917.495 390.739 917.147 389.461 916.973 387.281 916.973 384.2L916.973 362.92 907.832 366.986 907.838 364.094 916.973 360.064Z" stroke="#000000" stroke-linejoin="round" stroke-miterlimit="10" fill-rule="evenodd"/><text fill="#000000" fill-opacity="0" font-family="Arial,Arial_MSFontService,sans-serif" font-size="60.9" x="826.144" y="387.225">matera</text><path d="M1068.73 354.035 1071.25 354.035 1071.25 384.155C1071.25 387.163 1071.25 388.755 1071.25 388.929 1071.55 390.722 1072.4 391.619 1073.8 391.619 1074.45 391.619 1075.24 391.416 1076.17 391.011 1078.57 390.028 1081.24 388.032 1084.17 385.022 1086.51 382.591 1088.3 380.335 1089.52 378.252L1089.52 354.035 1092.05 354.035 1092.05 374.654 1093.35 375.959C1092.48 377.815 1092.05 378.859 1092.05 379.091L1092.05 411.455 1089.52 411.455 1089.52 382.919C1085.27 388.429 1081.17 391.967 1077.21 393.533 1075.81 394.113 1074.59 394.403 1073.54 394.403 1071.38 394.403 1069.96 393.185 1069.26 390.749 1068.91 389.473 1068.73 387.298 1068.73 384.224Z" stroke="#000000" stroke-linejoin="round" stroke-miterlimit="10" fill-rule="evenodd"/><text fill="#000000" fill-opacity="0" font-family="Arial,Arial_MSFontService,sans-serif" font-size="57.42" x="1068.73" y="404.277">y</text><path d="M1149.41 353.774C1153.64 353.774 1155.76 355.304 1155.76 358.363 1155.76 359.345 1155.56 360.442 1155.15 361.654 1154.05 364.772 1151.21 367.427 1146.63 369.62 1142.8 371.41 1139.49 372.305 1136.71 372.305 1135.9 372.305 1135.37 372.189 1135.14 371.957L1137.15 368.738C1137.15 369.26 1137.65 369.521 1138.64 369.521 1140.74 369.521 1143.3 368.714 1146.33 367.1 1149.83 365.256 1151.99 363.152 1152.8 360.79 1153.09 359.925 1153.24 359.176 1153.24 358.541 1153.24 356.755 1152.1 355.862 1149.82 355.862 1147.55 355.862 1144.51 356.641 1140.72 358.2 1138.21 359.181 1135.52 361.46 1132.66 365.039 1129.1 369.483 1126.94 374.216 1126.18 379.238 1126.01 380.391 1125.92 381.459 1125.92 382.44 1125.92 388.327 1128.39 391.271 1133.34 391.271 1138.92 391.271 1145.18 387.733 1152.1 380.657L1154.02 382.484C1146.54 390.198 1139.55 394.055 1133.05 394.055 1130.1 394.055 1127.75 393.086 1126.01 391.147 1124.27 389.208 1123.4 386.386 1123.4 382.682 1123.4 381.525 1123.48 380.281 1123.66 378.95 1124.47 373.335 1126.88 368.127 1130.88 363.324 1134.07 359.446 1137.06 356.928 1139.84 355.771 1143.15 354.44 1146.34 353.774 1149.41 353.774ZM1162.4 324.542 1164.92 324.542 1164.92 393.968 1162.4 393.968Z" stroke="#000000" stroke-linejoin="round" stroke-miterlimit="10" fill-rule="evenodd"/><text fill="#000000" fill-opacity="0" font-family="Arial,Arial_MSFontService,sans-serif" font-size="69.513" x="1123.4" y="385.366">el</text><path d="M786.483 462.907C782.805 462.907 776.207 465.633 766.689 471.085L766.689 496.228C771.828 494.372 776.732 491.791 781.403 488.485 788.818 483.149 792.643 477.523 792.876 471.607 793.108 465.807 790.977 462.907 786.483 462.907ZM822.236 461.145C821.805 461.087 821.35 461.094 820.871 461.167 811.533 462.613 805.501 468.457 802.775 478.697 802.137 481.127 801.818 483.499 801.818 485.814 801.818 488.764 802.34 491.135 803.384 492.929 804.486 494.896 806.023 495.88 807.995 495.88 808.401 495.88 808.807 495.851 809.213 495.793 813.969 494.926 817.855 492.062 820.871 487.202 822.263 484.945 824.003 480.895 826.091 475.052 826.671 473.374 826.961 471.581 826.961 469.671 826.961 467.126 826.468 465.043 825.482 463.424 824.612 462.078 823.53 461.318 822.236 461.145ZM752.342 459.253 754.865 459.253 754.865 498.403 752.342 498.403ZM822.437 458.519C824.264 458.747 825.83 459.775 827.135 461.602 828.701 463.864 829.484 466.706 829.484 470.128 829.484 472.158 829.165 474.072 828.527 475.87 826.323 482.076 824.38 486.513 822.698 489.181 819.276 494.459 814.926 497.562 809.648 498.49 809.126 498.606 808.633 498.664 808.169 498.664 805.385 498.664 803.181 497.33 801.557 494.662 800.049 492.168 799.295 488.978 799.295 485.092 799.295 482.772 799.585 480.423 800.165 478.045 803.065 466.677 809.851 460.181 820.523 458.557 821.19 458.455 821.828 458.443 822.437 458.519ZM764.166 456.556 766.689 456.556 766.689 467.692C775.416 462.82 782.077 460.384 786.674 460.384 792.607 460.384 795.515 464.125 795.399 471.607 795.283 478.567 791.211 484.947 783.183 490.747 778.528 494.169 773.03 497.069 766.689 499.447L766.689 516.847 764.166 516.847 764.166 471.781 763.122 469.693C763.122 469.693 763.47 469.519 764.166 469.171ZM752.342 448.639 754.865 448.639 754.865 455.164 752.342 455.164ZM722.559 437.938 725.082 437.938 725.082 462.941 737.871 457.253 737.866 460.111 725.082 465.797 725.082 488.163C725.082 491.053 725.111 492.642 725.169 492.931 725.461 494.723 726.306 495.619 727.703 495.619 728.344 495.619 729.131 495.417 730.063 495.014 732.685 493.918 735.365 491.583 738.103 488.008 740.258 485.241 741.684 482.906 742.383 481.003L745.092 481.003C744.28 483.497 742.627 486.368 740.133 489.616 737.117 493.618 734.072 496.257 730.998 497.533 729.606 498.113 728.388 498.403 727.344 498.403 725.198 498.403 723.777 497.182 723.081 494.739 722.733 493.461 722.559 491.281 722.559 488.2L722.559 466.92 713.419 470.986 713.424 468.094 722.559 464.064Z" stroke="#000000" stroke-linejoin="round" stroke-miterlimit="10" fill-rule="evenodd"/><text fill="#000000" fill-opacity="0" font-family="Arial,Arial_MSFontService,sans-serif" font-size="78.909" x="713.419" y="506.983">tipo</text><path d="M857.652 458.035 860.175 458.035 860.175 488.155C860.175 491.163 860.175 492.755 860.175 492.929 860.468 494.722 861.317 495.619 862.722 495.619 863.367 495.619 864.157 495.416 865.093 495.011 867.495 494.028 870.159 492.032 873.086 489.022 875.429 486.591 877.215 484.335 878.445 482.252L878.445 458.035 880.968 458.035 880.968 478.654 882.273 479.959C881.403 481.815 880.968 482.859 880.968 483.091L880.968 515.455 878.445 515.455 878.445 486.919C874.193 492.429 870.086 495.967 866.126 497.533 864.729 498.113 863.506 498.403 862.457 498.403 860.302 498.403 858.875 497.185 858.177 494.749 857.827 493.473 857.652 491.298 857.652 488.224Z" stroke="#000000" stroke-linejoin="round" stroke-miterlimit="10" fill-rule="evenodd"/><text fill="#000000" fill-opacity="0" font-family="Arial,Arial_MSFontService,sans-serif" font-size="57.42" x="857.652" y="508.277">y</text><path d="M1132.46 473.434C1126.95 474.308 1121.44 475.938 1115.93 478.325 1107.99 481.877 1103.7 485.981 1103.06 490.638 1102.54 494.365 1104.16 496.228 1107.93 496.228 1111.53 496.228 1116.17 494.743 1121.85 491.773 1127.19 488.92 1130.72 486.271 1132.46 483.826ZM977.464 473.434C971.953 474.308 966.443 475.938 960.933 478.325 952.987 481.877 948.695 485.981 948.057 490.638 947.535 494.365 949.159 496.228 952.93 496.228 956.526 496.228 961.165 494.743 966.849 491.773 972.185 488.92 975.724 486.271 977.464 483.826ZM1168.71 462.472C1162.08 462.472 1156.26 464.722 1151.26 469.221 1145.68 474.182 1142.88 480.614 1142.88 488.518 1142.88 489.441 1142.91 490.364 1142.97 491.287 1143.15 493.479 1144.34 494.575 1146.55 494.575 1150.62 494.575 1155.39 491.863 1160.86 486.44 1166.91 480.499 1170.52 474.038 1171.68 467.059L1171.68 462.645C1170.69 462.53 1169.7 462.472 1168.71 462.472ZM1088.71 462.472C1082.08 462.472 1076.26 464.722 1071.26 469.221 1065.68 474.182 1062.88 480.614 1062.88 488.518 1062.88 489.441 1062.91 490.364 1062.97 491.287 1063.15 493.479 1064.34 494.575 1066.55 494.575 1070.62 494.575 1075.39 491.863 1080.86 486.44 1086.91 480.499 1090.52 474.038 1091.68 467.059L1091.68 462.645C1090.69 462.53 1089.7 462.472 1088.71 462.472ZM936.068 459.427C938.156 459.427 939.983 459.949 941.549 460.993L939.548 462.994C938.272 462.066 936.823 461.602 935.198 461.602 931.138 461.602 927.021 463.936 922.844 468.605 918.668 473.274 916.232 478.306 915.536 483.7 915.42 484.512 915.362 485.324 915.362 486.136 915.362 492.11 918.263 495.097 924.062 495.097 929.573 495.097 934.706 492.777 939.461 488.137L941.289 490.051C936.126 495.155 930.384 497.707 924.062 497.707 920.698 497.707 918.031 496.808 916.058 495.01 913.912 492.98 912.839 490.051 912.839 486.223 912.839 485.295 912.897 484.338 913.013 483.352 913.768 477.378 916.595 471.897 921.496 466.909 926.397 461.921 931.255 459.427 936.068 459.427ZM1049.84 459.253 1052.37 459.253 1052.37 498.403 1049.84 498.403ZM985.1 458.035 987.623 458.035 987.623 474.304C993.389 465.72 998.397 460.587 1002.65 458.905 1003.29 458.673 1003.87 458.557 1004.4 458.557 1006.61 458.557 1008.04 460.819 1008.68 465.343 1008.97 467.315 1009.11 471.259 1009.11 477.175L1009.11 498.403 1006.59 498.403 1006.59 477.175C1006.59 472.361 1006.5 469.171 1006.33 467.605 1005.92 464.067 1004.98 462.298 1003.52 462.298 1003.22 462.298 1002.9 462.385 1002.55 462.559 997.926 464.531 992.95 469.954 987.623 478.828L987.623 498.403 985.1 498.403 985.1 481.003 983.534 481.003C983.708 480.655 984.23 479.785 985.1 478.393ZM1126.11 457.339C1128.43 457.339 1130.52 458.267 1132.38 460.123 1134.23 461.979 1135.16 464.096 1135.16 466.474L1135.16 470.737C1135.16 470.795 1135.26 470.969 1135.46 471.259 1135.67 471.549 1135.77 471.781 1135.77 471.955L1135.16 473.173 1135.16 482.221 1136.03 482.395C1135.62 483.613 1135.33 484.367 1135.16 484.657L1135.16 498.403 1132.46 498.403 1132.46 487.528C1129.33 490.159 1125.45 492.556 1120.81 494.719 1115.47 497.175 1111.03 498.403 1107.49 498.403 1102.33 498.403 1099.98 495.706 1100.45 490.312 1100.91 485.15 1105.55 480.539 1114.37 476.479 1120.81 473.521 1126.84 471.665 1132.46 470.911L1132.46 466.561C1132.46 464.879 1131.83 463.385 1130.55 462.08 1129.27 460.775 1127.82 460.123 1126.2 460.123 1124.69 460.123 1121.47 460.924 1116.54 462.525 1111.32 464.184 1108.57 465.472 1108.28 466.387L1105.49 466.387C1105.55 464.937 1107.84 463.255 1112.37 461.341 1116.31 459.659 1120.37 458.383 1124.55 457.513 1125.07 457.397 1125.59 457.339 1126.11 457.339ZM971.112 457.339C973.432 457.339 975.521 458.267 977.376 460.123 979.232 461.979 980.161 464.096 980.161 466.474L980.161 470.737C980.161 470.795 980.262 470.969 980.465 471.259 980.668 471.549 980.769 471.781 980.769 471.955L980.161 473.173 980.161 482.221 981.031 482.395C980.625 483.613 980.334 484.367 980.161 484.657L980.161 498.403 977.464 498.403 977.464 487.528C974.331 490.159 970.445 492.556 965.805 494.719 960.469 497.175 956.032 498.403 952.495 498.403 947.332 498.403 944.983 495.706 945.448 490.312 945.911 485.15 950.552 480.539 959.367 476.479 965.805 473.521 971.837 471.665 977.464 470.911L977.464 466.561C977.464 464.879 976.826 463.385 975.549 462.08 974.273 460.775 972.823 460.123 971.199 460.123 969.691 460.123 966.472 460.924 961.542 462.525 956.323 464.184 953.568 465.472 953.277 466.387L950.493 466.387C950.552 464.937 952.842 463.255 957.367 461.341 961.31 459.659 965.37 458.383 969.547 457.513 970.068 457.397 970.591 457.339 971.112 457.339ZM1049.84 448.639 1052.37 448.639 1052.37 455.164 1049.84 455.164ZM1020.06 437.938 1022.58 437.938 1022.58 462.941 1035.37 457.253 1035.37 460.111 1022.58 465.797 1022.58 488.163C1022.58 491.053 1022.61 492.642 1022.67 492.931 1022.96 494.723 1023.81 495.619 1025.2 495.619 1025.84 495.619 1026.63 495.417 1027.56 495.014 1030.19 493.918 1032.86 491.583 1035.6 488.008 1037.76 485.241 1039.18 482.906 1039.88 481.003L1042.59 481.003C1041.78 483.497 1040.13 486.368 1037.63 489.616 1034.62 493.618 1031.57 496.257 1028.5 497.533 1027.11 498.113 1025.89 498.403 1024.84 498.403 1022.7 498.403 1021.28 497.182 1020.58 494.739 1020.23 493.461 1020.06 491.281 1020.06 488.2L1020.06 466.92 1010.92 470.986 1010.92 468.094 1020.06 464.064ZM1171.68 428.194 1174.2 428.194 1174.2 497.968 1171.68 497.968 1171.68 475.348C1169.06 481.438 1165.08 486.716 1159.73 491.182 1154.67 495.3 1150.13 497.359 1146.12 497.359 1142.75 497.359 1140.83 495.648 1140.36 492.226 1140.13 490.718 1140.01 489.239 1140.01 487.789 1140.01 479.379 1143.21 472.448 1149.61 466.996 1155.31 462.124 1161.74 459.688 1168.89 459.688 1169.82 459.688 1170.75 459.688 1171.68 459.688ZM1091.68 428.194 1094.2 428.194 1094.2 497.968 1091.68 497.968 1091.68 475.348C1089.06 481.438 1085.08 486.716 1079.73 491.182 1074.67 495.3 1070.13 497.359 1066.12 497.359 1062.75 497.359 1060.83 495.648 1060.36 492.226 1060.13 490.718 1060.01 489.239 1060.01 487.789 1060.01 479.379 1063.21 472.448 1069.61 466.996 1075.31 462.124 1081.74 459.688 1088.89 459.688 1089.82 459.688 1090.75 459.688 1091.68 459.688Z" stroke="#000000" stroke-linejoin="round" stroke-miterlimit="10" fill-rule="evenodd"/><text fill="#000000" fill-opacity="0" font-family="Arial,Arial_MSFontService,sans-serif" font-size="70.209" x="912.839" y="489.627">cantidad</text><path d="M772.214 566.472C765.582 566.472 759.765 568.722 754.762 573.221 749.177 578.182 746.384 584.614 746.384 592.518 746.384 593.441 746.413 594.364 746.471 595.287 746.646 597.479 747.839 598.575 750.049 598.575 754.122 598.575 758.892 595.864 764.361 590.44 770.411 584.499 774.018 578.038 775.181 571.059L775.181 566.645C774.193 566.53 773.204 566.472 772.214 566.472ZM809.83 561.774C814.064 561.774 816.181 563.304 816.181 566.363 816.181 567.345 815.978 568.442 815.572 569.654 814.47 572.772 811.628 575.427 807.046 577.62 803.218 579.41 799.912 580.305 797.128 580.305 796.316 580.305 795.794 580.189 795.562 579.957L797.573 576.738C797.573 577.26 798.068 577.521 799.059 577.521 801.157 577.521 803.721 576.714 806.753 575.1 810.249 573.256 812.405 571.152 813.221 568.79 813.513 567.925 813.658 567.176 813.658 566.541 813.658 564.755 812.52 563.862 810.244 563.862 807.967 563.862 804.932 564.641 801.137 566.2 798.628 567.181 795.943 569.46 793.083 573.039 789.522 577.483 787.362 582.216 786.603 587.238 786.428 588.391 786.34 589.459 786.34 590.44 786.34 596.328 788.813 599.271 793.759 599.271 799.344 599.271 805.598 595.733 812.522 588.657L814.441 590.484C806.959 598.198 799.97 602.055 793.474 602.055 790.516 602.055 788.167 601.086 786.427 599.147 784.687 597.208 783.817 594.386 783.817 590.682 783.817 589.525 783.904 588.281 784.078 586.95 784.89 581.335 787.297 576.127 791.299 571.324 794.489 567.446 797.476 564.928 800.26 563.771 803.566 562.44 806.756 561.774 809.83 561.774ZM775.181 532.194 777.704 532.194 777.704 601.968 775.181 601.968 775.181 579.348C772.564 585.438 768.58 590.716 763.23 595.182 758.17 599.3 753.634 601.359 749.62 601.359 746.247 601.359 744.328 599.648 743.863 596.226 743.63 594.718 743.513 593.239 743.513 591.789 743.513 583.379 746.712 576.448 753.109 570.996 758.81 566.124 765.236 563.688 772.389 563.688 773.32 563.688 774.251 563.688 775.181 563.688Z" stroke="#000000" stroke-linejoin="round" stroke-miterlimit="10" fill-rule="evenodd"/><text fill="#000000" fill-opacity="0" font-family="Arial,Arial_MSFontService,sans-serif" font-size="69.861" x="743.513" y="593.322">de</text><path d="M1112.96 577.434C1107.45 578.308 1101.94 579.938 1096.43 582.325 1088.49 585.877 1084.2 589.981 1083.56 594.638 1083.04 598.365 1084.66 600.228 1088.43 600.228 1092.03 600.228 1096.67 598.743 1102.35 595.773 1107.69 592.92 1111.22 590.271 1112.96 587.826ZM933.568 563.427C935.656 563.427 937.484 563.949 939.049 564.993L937.048 566.994C935.772 566.066 934.323 565.602 932.698 565.602 928.638 565.602 924.521 567.937 920.344 572.606 916.168 577.275 913.732 582.306 913.036 587.7 912.92 588.512 912.862 589.324 912.862 590.136 912.862 596.11 915.763 599.097 921.562 599.097 927.073 599.097 932.206 596.777 936.961 592.137L938.789 594.051C933.626 599.155 927.884 601.707 921.562 601.707 918.198 601.707 915.531 600.808 913.558 599.01 911.412 596.98 910.339 594.051 910.339 590.223 910.339 589.295 910.397 588.338 910.513 587.352 911.267 581.378 914.095 575.897 918.996 570.909 923.897 565.921 928.754 563.427 933.568 563.427ZM867.709 562.883C869.021 562.811 870.366 562.818 871.743 562.905L871.743 565.515C866.755 565.167 862.376 565.878 858.607 567.646 854.836 569.416 852.11 572.127 850.428 575.781 850.196 576.361 850.081 576.854 850.081 577.26 850.081 578.304 851.037 578.826 852.951 578.826 854.053 578.826 856.446 578.536 860.129 577.956 863.812 577.376 866.581 577.086 868.438 577.086 873.425 577.086 875.919 578.884 875.919 582.48 875.919 583.408 875.774 584.452 875.484 585.612 873.513 593.094 864.493 598.836 848.427 602.838L848.427 600.141C855.074 598.459 859.756 597.009 862.473 595.791 868.253 593.123 871.749 589.73 872.963 585.612 873.252 584.684 873.396 583.872 873.396 583.176 873.396 580.682 871.604 579.435 868.02 579.435 866.46 579.435 863.786 579.754 860 580.392 856.214 581.03 853.569 581.349 852.065 581.349 848.828 581.349 847.209 580.247 847.209 578.043 847.209 577.405 847.354 576.651 847.644 575.781 848.978 571.431 852.023 568.067 856.779 565.689 860.129 564.036 863.772 563.101 867.709 562.883ZM1023.6 562.035 1026.12 562.035 1026.12 578.304C1031.89 569.72 1036.9 564.587 1041.15 562.905 1041.79 562.673 1042.37 562.557 1042.9 562.557 1045.11 562.557 1046.54 564.819 1047.18 569.343 1047.47 571.315 1047.61 575.259 1047.61 581.175L1047.61 602.403 1045.09 602.403 1045.09 581.175C1045.09 576.361 1045 573.171 1044.83 571.605 1044.42 568.067 1043.48 566.298 1042.02 566.298 1041.72 566.298 1041.4 566.385 1041.05 566.559 1036.43 568.531 1031.45 573.954 1026.12 582.828L1026.12 602.403 1023.6 602.403 1023.6 585.003 1022.03 585.003C1022.21 584.655 1022.73 583.785 1023.6 582.393ZM942.469 562.035 944.992 562.035 944.992 592.155C944.992 595.047 945.022 596.639 945.081 596.929 945.315 598.722 946.134 599.619 947.54 599.619 948.184 599.619 948.975 599.416 949.911 599.011 952.312 597.97 954.977 595.916 957.904 592.849 960.246 590.419 962.033 588.191 963.263 586.165L963.263 562.035 965.785 562.035 965.785 584.655 967.177 584.655C966.771 585.293 966.307 586.047 965.785 586.917L965.785 602.403 963.263 602.403 963.263 590.832C958.952 596.4 954.817 599.967 950.857 601.533 949.458 602.113 948.236 602.403 947.188 602.403 945.091 602.403 943.693 601.185 942.994 598.749 942.644 597.473 942.469 595.298 942.469 592.224ZM879.469 562.035 881.992 562.035 881.992 592.155C881.992 595.047 882.022 596.639 882.081 596.929 882.315 598.722 883.134 599.619 884.54 599.619 885.184 599.619 885.975 599.416 886.911 599.011 889.312 597.97 891.977 595.916 894.904 592.849 897.246 590.419 899.033 588.191 900.263 586.165L900.263 562.035 902.785 562.035 902.785 584.655 904.177 584.655C903.771 585.293 903.307 586.047 902.785 586.917L902.785 602.403 900.263 602.403 900.263 590.832C895.952 596.4 891.817 599.967 887.857 601.533 886.458 602.113 885.235 602.403 884.188 602.403 882.091 602.403 880.693 601.185 879.994 598.749 879.644 597.473 879.469 595.298 879.469 592.224ZM1011.83 561.774C1016.06 561.774 1018.18 563.304 1018.18 566.363 1018.18 567.345 1017.98 568.442 1017.57 569.654 1016.47 572.772 1013.63 575.427 1009.05 577.62 1005.22 579.41 1001.91 580.305 999.128 580.305 998.316 580.305 997.794 580.189 997.562 579.957L999.573 576.738C999.573 577.26 1000.07 577.521 1001.06 577.521 1003.16 577.521 1005.72 576.714 1008.75 575.1 1012.25 573.256 1014.41 571.152 1015.22 568.79 1015.51 567.925 1015.66 567.176 1015.66 566.541 1015.66 564.755 1014.52 563.862 1012.24 563.862 1009.97 563.862 1006.93 564.641 1003.14 566.2 1000.63 567.181 997.943 569.46 995.083 573.039 991.522 577.483 989.362 582.216 988.603 587.238 988.428 588.391 988.34 589.459 988.34 590.44 988.34 596.328 990.813 599.271 995.759 599.271 1001.34 599.271 1007.6 595.733 1014.52 588.657L1016.44 590.484C1008.96 598.198 1001.97 602.055 995.474 602.055 992.516 602.055 990.167 601.086 988.427 599.147 986.688 597.208 985.818 594.386 985.818 590.682 985.818 589.525 985.904 588.281 986.078 586.95 986.891 581.335 989.297 576.127 993.299 571.324 996.49 567.446 999.477 564.928 1002.26 563.771 1005.57 562.44 1008.76 561.774 1011.83 561.774ZM1106.61 561.339C1108.93 561.339 1111.02 562.267 1112.88 564.123 1114.73 565.979 1115.66 568.096 1115.66 570.474L1115.66 574.737C1115.66 574.795 1115.76 574.969 1115.96 575.259 1116.17 575.549 1116.27 575.781 1116.27 575.955L1115.66 577.173 1115.66 586.221 1116.53 586.395C1116.12 587.613 1115.83 588.367 1115.66 588.657L1115.66 602.403 1112.96 602.403 1112.96 591.528C1109.83 594.159 1105.95 596.556 1101.31 598.719 1095.97 601.175 1091.53 602.403 1087.99 602.403 1082.83 602.403 1080.48 599.706 1080.95 594.312 1081.41 589.15 1086.05 584.539 1094.87 580.479 1101.31 577.521 1107.34 575.665 1112.96 574.911L1112.96 570.561C1112.96 568.879 1112.33 567.385 1111.05 566.081 1109.77 564.776 1108.32 564.123 1106.7 564.123 1105.19 564.123 1101.97 564.924 1097.04 566.525 1091.82 568.184 1089.07 569.472 1088.78 570.387L1085.99 570.387C1086.05 568.937 1088.34 567.255 1092.87 565.341 1096.81 563.659 1100.87 562.383 1105.05 561.513 1105.57 561.397 1106.09 561.339 1106.61 561.339ZM1058.56 541.938 1061.08 541.938 1061.08 566.941 1073.87 561.253 1073.87 564.111 1061.08 569.797 1061.08 592.163C1061.08 595.053 1061.11 596.642 1061.17 596.932 1061.46 598.723 1062.31 599.619 1063.7 599.619 1064.34 599.619 1065.13 599.417 1066.06 599.014 1068.69 597.918 1071.36 595.583 1074.1 592.008 1076.26 589.241 1077.68 586.906 1078.38 585.003L1081.09 585.003C1080.28 587.497 1078.63 590.368 1076.13 593.616 1073.12 597.618 1070.07 600.257 1067 601.533 1065.61 602.113 1064.39 602.403 1063.34 602.403 1061.2 602.403 1059.78 601.182 1059.08 598.74 1058.73 597.461 1058.56 595.281 1058.56 592.2L1058.56 570.92 1049.42 574.986 1049.42 572.094 1058.56 568.064ZM973.818 532.542 976.341 532.542 976.341 601.968 973.818 601.968Z" stroke="#000000" stroke-linejoin="round" stroke-miterlimit="10" fill-rule="evenodd"/><text fill="#000000" fill-opacity="0" font-family="Arial,Arial_MSFontService,sans-serif" font-size="70.296" x="847.209" y="594.051">suculenta</text><path d="M1142.38 562.883C1143.69 562.811 1145.03 562.818 1146.41 562.905L1146.41 565.515C1141.42 565.167 1137.04 565.878 1133.27 567.646 1129.5 569.416 1126.78 572.127 1125.1 575.781 1124.86 576.361 1124.75 576.854 1124.75 577.26 1124.75 578.304 1125.7 578.826 1127.62 578.826 1128.72 578.826 1131.11 578.536 1134.8 577.956 1138.48 577.376 1141.25 577.086 1143.1 577.086 1148.09 577.086 1150.59 578.884 1150.59 582.48 1150.59 583.408 1150.44 584.452 1150.15 585.612 1148.18 593.094 1139.16 598.836 1123.09 602.838L1123.09 600.141C1129.74 598.459 1134.42 597.009 1137.14 595.791 1142.92 593.123 1146.42 589.73 1147.63 585.612 1147.92 584.684 1148.06 583.872 1148.06 583.176 1148.06 580.682 1146.27 579.435 1142.69 579.435 1141.13 579.435 1138.45 579.754 1134.67 580.392 1130.88 581.03 1128.24 581.349 1126.73 581.349 1123.49 581.349 1121.88 580.247 1121.88 578.043 1121.88 577.405 1122.02 576.651 1122.31 575.781 1123.65 571.431 1126.69 568.067 1131.45 565.689 1134.8 564.036 1138.44 563.101 1142.38 562.883Z" stroke="#000000" stroke-linejoin="round" stroke-miterlimit="10" fill-rule="evenodd"/><text fill="#000000" fill-opacity="0" font-family="Arial,Arial_MSFontService,sans-serif" font-size="40.0042" x="1121.88" y="597.838">s</text><g clip-path="url(#clip10)"><g clip-path="url(#clip11)"><g clip-path="url(#clip12)"><path d="M496.3 464.911 446.536 463.198C438.875 462.857 432.894 456.451 433.082 448.784 433.224 445.092 434.811 441.604 437.501 439.071 440.213 436.562 443.802 435.218 447.495 435.33L460.283 435.82 406.994 378.731C401.955 373.734 401.582 365.711 406.135 360.267 411.094 354.947 419.426 354.654 424.746 359.612 424.961 359.812 425.168 360.018 425.368 360.232L461.455 398.891 490.145 378.853C495.518 375.129 502.809 375.911 507.271 380.689L507.271 380.689C519.807 394.155 529.071 410.33 534.342 427.956L534.696 429.264" stroke="#767171" stroke-width="10.5629" stroke-miterlimit="10" fill="none"/><path d="M378.405 372.665C377.793 390.8 391.985 406.004 410.119 406.64" stroke="#767171" stroke-width="10.5629" stroke-miterlimit="10" fill="none"/><path d="M453.669 365.989C454.203 347.883 440.055 332.726 421.955 332.014" stroke="#767171" stroke-width="10.5629" stroke-miterlimit="10" fill="none"/></g></g></g></g></svg>